G04 #@! TF.GenerationSoftware,KiCad,Pcbnew,(5.0.2)-1*
G04 #@! TF.CreationDate,2019-03-12T22:47:49+00:00*
G04 #@! TF.ProjectId,crazy-proto - SOT23 - Hex,6372617a-792d-4707-926f-746f202d2053,1.0*
G04 #@! TF.SameCoordinates,Original*
G04 #@! TF.FileFunction,Legend,Top*
G04 #@! TF.FilePolarity,Positive*
%FSLAX46Y46*%
G04 Gerber Fmt 4.6, Leading zero omitted, Abs format (unit mm)*
G04 Created by KiCad (PCBNEW (5.0.2)-1) date 12/03/2019 22:47:49*
%MOMM*%
%LPD*%
G01*
G04 APERTURE LIST*
%ADD10C,0.100000*%
%ADD11C,0.300000*%
%ADD12C,0.250000*%
%ADD13C,0.500000*%
%ADD14C,0.120000*%
%ADD15C,0.150000*%
G04 APERTURE END LIST*
D10*
X134196550Y-108265750D02*
X137660650Y-106265750D01*
X137632450Y-106265750D02*
X141096550Y-108265750D01*
X134160650Y-108265750D02*
X134160650Y-112265750D01*
X141096550Y-112265750D02*
X137632450Y-114265750D01*
X141032450Y-112265750D02*
X141032450Y-108265750D01*
X134132450Y-112265750D02*
X137596550Y-114265750D01*
D11*
X139500000Y-110078571D02*
X140428571Y-110078571D01*
X139928571Y-110650000D01*
X140142857Y-110650000D01*
X140285714Y-110721428D01*
X140357142Y-110792857D01*
X140428571Y-110935714D01*
X140428571Y-111292857D01*
X140357142Y-111435714D01*
X140285714Y-111507142D01*
X140142857Y-111578571D01*
X139714285Y-111578571D01*
X139571428Y-111507142D01*
X139500000Y-111435714D01*
X134571428Y-110321428D02*
X134642857Y-110250000D01*
X134785714Y-110178571D01*
X135142857Y-110178571D01*
X135285714Y-110250000D01*
X135357142Y-110321428D01*
X135428571Y-110464285D01*
X135428571Y-110607142D01*
X135357142Y-110821428D01*
X134500000Y-111678571D01*
X135428571Y-111678571D01*
X138028571Y-108178571D02*
X137171428Y-108178571D01*
X137600000Y-108178571D02*
X137600000Y-106678571D01*
X137457142Y-106892857D01*
X137314285Y-107035714D01*
X137171428Y-107107142D01*
D12*
X115979047Y-102226285D02*
X115883809Y-102321523D01*
X115598095Y-102416761D01*
X115407619Y-102416761D01*
X115121904Y-102321523D01*
X114931428Y-102131047D01*
X114836190Y-101940571D01*
X114740952Y-101559619D01*
X114740952Y-101273904D01*
X114836190Y-100892952D01*
X114931428Y-100702476D01*
X115121904Y-100512000D01*
X115407619Y-100416761D01*
X115598095Y-100416761D01*
X115883809Y-100512000D01*
X115979047Y-100607238D01*
X115502761Y-98829142D02*
X115788476Y-98924380D01*
X115883714Y-99019619D01*
X115978952Y-99210095D01*
X115978952Y-99495809D01*
X115883714Y-99686285D01*
X115788476Y-99781523D01*
X115598000Y-99876761D01*
X114836095Y-99876761D01*
X114836095Y-97876761D01*
X115502761Y-97876761D01*
X115693238Y-97972000D01*
X115788476Y-98067238D01*
X115883714Y-98257714D01*
X115883714Y-98448190D01*
X115788476Y-98638666D01*
X115693238Y-98733904D01*
X115502761Y-98829142D01*
X114836095Y-98829142D01*
X114883714Y-96765333D02*
X115836095Y-96765333D01*
X114693238Y-97336761D02*
X115359904Y-95336761D01*
X116026571Y-97336761D01*
X116161904Y-103967857D02*
X114638095Y-103967857D01*
X116121904Y-93780857D02*
X114598095Y-93780857D01*
X115360000Y-94542761D02*
X115360000Y-93018952D01*
X141066666Y-105314285D02*
X140971428Y-105409523D01*
X140685714Y-105504761D01*
X140495238Y-105504761D01*
X140209523Y-105409523D01*
X140019047Y-105219047D01*
X139923809Y-105028571D01*
X139828571Y-104647619D01*
X139828571Y-104361904D01*
X139923809Y-103980952D01*
X140019047Y-103790476D01*
X140209523Y-103600000D01*
X140495238Y-103504761D01*
X140685714Y-103504761D01*
X140971428Y-103600000D01*
X141066666Y-103695238D01*
X141828571Y-103695238D02*
X141923809Y-103600000D01*
X142114285Y-103504761D01*
X142590476Y-103504761D01*
X142780952Y-103600000D01*
X142876190Y-103695238D01*
X142971428Y-103885714D01*
X142971428Y-104076190D01*
X142876190Y-104361904D01*
X141733333Y-105504761D01*
X142971428Y-105504761D01*
X133666666Y-105314285D02*
X133571428Y-105409523D01*
X133285714Y-105504761D01*
X133095238Y-105504761D01*
X132809523Y-105409523D01*
X132619047Y-105219047D01*
X132523809Y-105028571D01*
X132428571Y-104647619D01*
X132428571Y-104361904D01*
X132523809Y-103980952D01*
X132619047Y-103790476D01*
X132809523Y-103600000D01*
X133095238Y-103504761D01*
X133285714Y-103504761D01*
X133571428Y-103600000D01*
X133666666Y-103695238D01*
X135571428Y-105504761D02*
X134428571Y-105504761D01*
X135000000Y-105504761D02*
X135000000Y-103504761D01*
X134809523Y-103790476D01*
X134619047Y-103980952D01*
X134428571Y-104076190D01*
X151610380Y-86337142D02*
X151896095Y-86432380D01*
X151991333Y-86527619D01*
X152086571Y-86718095D01*
X152086571Y-87003809D01*
X151991333Y-87194285D01*
X151896095Y-87289523D01*
X151705619Y-87384761D01*
X150943714Y-87384761D01*
X150943714Y-85384761D01*
X151610380Y-85384761D01*
X151800857Y-85480000D01*
X151896095Y-85575238D01*
X151991333Y-85765714D01*
X151991333Y-85956190D01*
X151896095Y-86146666D01*
X151800857Y-86241904D01*
X151610380Y-86337142D01*
X150943714Y-86337142D01*
X153991333Y-87384761D02*
X152848476Y-87384761D01*
X153419904Y-87384761D02*
X153419904Y-85384761D01*
X153229428Y-85670476D01*
X153038952Y-85860952D01*
X152848476Y-85956190D01*
X147610380Y-80037142D02*
X147896095Y-80132380D01*
X147991333Y-80227619D01*
X148086571Y-80418095D01*
X148086571Y-80703809D01*
X147991333Y-80894285D01*
X147896095Y-80989523D01*
X147705619Y-81084761D01*
X146943714Y-81084761D01*
X146943714Y-79084761D01*
X147610380Y-79084761D01*
X147800857Y-79180000D01*
X147896095Y-79275238D01*
X147991333Y-79465714D01*
X147991333Y-79656190D01*
X147896095Y-79846666D01*
X147800857Y-79941904D01*
X147610380Y-80037142D01*
X146943714Y-80037142D01*
X148848476Y-79275238D02*
X148943714Y-79180000D01*
X149134190Y-79084761D01*
X149610380Y-79084761D01*
X149800857Y-79180000D01*
X149896095Y-79275238D01*
X149991333Y-79465714D01*
X149991333Y-79656190D01*
X149896095Y-79941904D01*
X148753238Y-81084761D01*
X149991333Y-81084761D01*
X121691333Y-86713333D02*
X122643714Y-86713333D01*
X121500857Y-87284761D02*
X122167523Y-85284761D01*
X122834190Y-87284761D01*
X123405619Y-85475238D02*
X123500857Y-85380000D01*
X123691333Y-85284761D01*
X124167523Y-85284761D01*
X124358000Y-85380000D01*
X124453238Y-85475238D01*
X124548476Y-85665714D01*
X124548476Y-85856190D01*
X124453238Y-86141904D01*
X123310380Y-87284761D01*
X124548476Y-87284761D01*
X125641333Y-80263333D02*
X126593714Y-80263333D01*
X125450857Y-80834761D02*
X126117523Y-78834761D01*
X126784190Y-80834761D01*
X128498476Y-80834761D02*
X127355619Y-80834761D01*
X127927047Y-80834761D02*
X127927047Y-78834761D01*
X127736571Y-79120476D01*
X127546095Y-79310952D01*
X127355619Y-79406190D01*
D10*
X137603450Y-106346750D02*
X141067550Y-108346750D01*
X144503450Y-106346750D02*
X144503450Y-102346750D01*
X141103450Y-100346750D02*
X144567550Y-102346750D01*
X141067550Y-100346750D02*
X137603450Y-102346750D01*
X144567550Y-106346750D02*
X141103450Y-108346750D01*
X137631650Y-102346750D02*
X137631650Y-106346750D01*
X130703450Y-106296750D02*
X134167550Y-108296750D01*
X137667550Y-106296750D02*
X134203450Y-108296750D01*
X137603450Y-106296750D02*
X137603450Y-102296750D01*
X134203450Y-100296750D02*
X137667550Y-102296750D01*
X130731650Y-102296750D02*
X130731650Y-106296750D01*
X134167550Y-100296750D02*
X130703450Y-102296750D01*
X147903450Y-88296750D02*
X151367550Y-90296750D01*
X154867550Y-88296750D02*
X151403450Y-90296750D01*
X154803450Y-88296750D02*
X154803450Y-84296750D01*
X151403450Y-82296750D02*
X154867550Y-84296750D01*
X147931650Y-84296750D02*
X147931650Y-88296750D01*
X151367550Y-82296750D02*
X147903450Y-84296750D01*
X144503450Y-82296750D02*
X147967550Y-84296750D01*
X151467550Y-82296750D02*
X148003450Y-84296750D01*
X151403450Y-82296750D02*
X151403450Y-78296750D01*
X148003450Y-76296750D02*
X151467550Y-78296750D01*
X144531650Y-78296750D02*
X144531650Y-82296750D01*
X147967550Y-76296750D02*
X144503450Y-78296750D01*
X120303450Y-88296750D02*
X123767550Y-90296750D01*
X127267550Y-88296750D02*
X123803450Y-90296750D01*
X127203450Y-88296750D02*
X127203450Y-84296750D01*
X123803450Y-82296750D02*
X127267550Y-84296750D01*
X120331650Y-84296750D02*
X120331650Y-88296750D01*
X123767550Y-82296750D02*
X120303450Y-84296750D01*
X123753450Y-82296750D02*
X127217550Y-84296750D01*
X130717550Y-82296750D02*
X127253450Y-84296750D01*
X130653450Y-82296750D02*
X130653450Y-78296750D01*
X127253450Y-76296750D02*
X130717550Y-78296750D01*
X123781650Y-78296750D02*
X123781650Y-82296750D01*
X127217550Y-76296750D02*
X123753450Y-78296750D01*
X137631650Y-78296750D02*
X134167550Y-76296750D01*
X134167550Y-76296750D02*
X130703450Y-78296750D01*
X130703450Y-82296750D02*
X130703450Y-78296750D01*
X141067550Y-76296750D02*
X137603450Y-78296750D01*
X144531650Y-78296750D02*
X141067550Y-76296750D01*
X144531650Y-78296750D02*
X144531650Y-82296750D01*
X147931650Y-84296750D02*
X144467550Y-82296750D01*
X147931650Y-84296750D02*
X147931650Y-88296750D01*
X151431650Y-90296750D02*
X147967550Y-88296750D01*
X151431650Y-90296750D02*
X151431650Y-94296750D01*
X147967550Y-96296750D02*
X151431650Y-94296750D01*
X148031650Y-96296750D02*
X148031650Y-100296750D01*
X144567550Y-102296750D02*
X148031650Y-100296750D01*
X141103450Y-100296750D02*
X144567550Y-102296750D01*
X137667550Y-102296750D02*
X141131650Y-100296750D01*
X134203450Y-100296750D02*
X137667550Y-102296750D01*
X130767550Y-102296750D02*
X134231650Y-100296750D01*
X127303450Y-100296750D02*
X130767550Y-102296750D01*
X127303450Y-100296750D02*
X127303450Y-96296750D01*
X123803450Y-94296750D02*
X127267550Y-96296750D01*
X123803450Y-94296750D02*
X123803450Y-90296750D01*
X127267550Y-88296750D02*
X123803450Y-90296750D01*
X127203450Y-88296750D02*
X127203450Y-84296750D01*
X130667550Y-82296750D02*
X127203450Y-84296750D01*
D13*
X143815142Y-98344285D02*
X146100857Y-98344285D01*
X129215142Y-98544285D02*
X131500857Y-98544285D01*
X130358000Y-99687142D02*
X130358000Y-97401428D01*
D12*
X138127047Y-99114285D02*
X138031809Y-99209523D01*
X137746095Y-99304761D01*
X137555619Y-99304761D01*
X137269904Y-99209523D01*
X137079428Y-99019047D01*
X136984190Y-98828571D01*
X136888952Y-98447619D01*
X136888952Y-98161904D01*
X136984190Y-97780952D01*
X137079428Y-97590476D01*
X137269904Y-97400000D01*
X137555619Y-97304761D01*
X137746095Y-97304761D01*
X138031809Y-97400000D01*
X138127047Y-97495238D01*
D13*
X146915142Y-92394285D02*
X149200857Y-92394285D01*
X148058000Y-93537142D02*
X148058000Y-91251428D01*
X125857142Y-92214285D02*
X128142857Y-92214285D01*
D12*
X144712761Y-86237142D02*
X144998476Y-86332380D01*
X145093714Y-86427619D01*
X145188952Y-86618095D01*
X145188952Y-86903809D01*
X145093714Y-87094285D01*
X144998476Y-87189523D01*
X144808000Y-87284761D01*
X144046095Y-87284761D01*
X144046095Y-85284761D01*
X144712761Y-85284761D01*
X144903238Y-85380000D01*
X144998476Y-85475238D01*
X145093714Y-85665714D01*
X145093714Y-85856190D01*
X144998476Y-86046666D01*
X144903238Y-86141904D01*
X144712761Y-86237142D01*
X144046095Y-86237142D01*
X130193714Y-86613333D02*
X131146095Y-86613333D01*
X130003238Y-87184761D02*
X130669904Y-85184761D01*
X131336571Y-87184761D01*
D13*
X139932142Y-79944285D02*
X142217857Y-79944285D01*
X133015142Y-80094285D02*
X135300857Y-80094285D01*
X134158000Y-81237142D02*
X134158000Y-78951428D01*
X140491333Y-91434761D02*
X141729428Y-91434761D01*
X141062761Y-92196666D01*
X141348476Y-92196666D01*
X141538952Y-92291904D01*
X141634190Y-92387142D01*
X141729428Y-92577619D01*
X141729428Y-93053809D01*
X141634190Y-93244285D01*
X141538952Y-93339523D01*
X141348476Y-93434761D01*
X140777047Y-93434761D01*
X140586571Y-93339523D01*
X140491333Y-93244285D01*
X133586571Y-91425238D02*
X133681809Y-91330000D01*
X133872285Y-91234761D01*
X134348476Y-91234761D01*
X134538952Y-91330000D01*
X134634190Y-91425238D01*
X134729428Y-91615714D01*
X134729428Y-91806190D01*
X134634190Y-92091904D01*
X133491333Y-93234761D01*
X134729428Y-93234761D01*
X138129428Y-87234761D02*
X136986571Y-87234761D01*
X137558000Y-87234761D02*
X137558000Y-85234761D01*
X137367523Y-85520476D01*
X137177047Y-85710952D01*
X136986571Y-85806190D01*
D10*
X147967550Y-88296750D02*
X144503450Y-90296750D01*
X144503450Y-94296750D02*
X144503450Y-90296750D01*
X144567550Y-94296750D02*
X141103450Y-96296750D01*
X148031650Y-96296750D02*
X144567550Y-94296750D01*
X134203450Y-100296750D02*
X134203450Y-96296750D01*
X141131650Y-96296750D02*
X141131650Y-100296750D01*
X141131650Y-96296750D02*
X137667550Y-94296750D01*
X134231650Y-96296750D02*
X130767550Y-94296750D01*
X130731650Y-90296750D02*
X130731650Y-94296750D01*
X127267550Y-96296750D02*
X130731650Y-94296750D01*
X130731650Y-90296750D02*
X127267550Y-88296750D01*
X141067550Y-88296750D02*
X137603450Y-90296750D01*
X144531650Y-90296750D02*
X141067550Y-88296750D01*
X137631650Y-90296750D02*
X137631650Y-94296750D01*
X134167550Y-96296750D02*
X137631650Y-94296750D01*
X137603450Y-82296750D02*
X141067550Y-84296750D01*
X137603450Y-82296750D02*
X137603450Y-78296750D01*
X141067550Y-84296750D02*
X144531650Y-82296750D01*
X141003450Y-88296750D02*
X141003450Y-84296750D01*
X137567550Y-82296750D02*
X134103450Y-84296750D01*
X134103450Y-88296750D02*
X137567550Y-90296750D01*
X134131650Y-84296750D02*
X130667550Y-82296750D01*
X130667550Y-90296750D02*
X134131650Y-88296750D01*
X134131650Y-84296750D02*
X134131650Y-88296750D01*
D14*
G04 #@! TO.C,JP40*
X135067053Y-89494093D02*
X135567053Y-88628067D01*
X136744847Y-89308067D02*
X136244847Y-90174093D01*
G04 #@! TO.C,JP10*
X136739847Y-101199407D02*
X136239847Y-102065433D01*
X135062053Y-101385433D02*
X135562053Y-100519407D01*
G04 #@! TO.C,JP15*
X145868883Y-90072263D02*
X145368883Y-89206237D01*
X146546677Y-88526237D02*
X147046677Y-89392263D01*
G04 #@! TO.C,JP12*
X149364553Y-84069763D02*
X148864553Y-83203737D01*
X150042347Y-82523737D02*
X150542347Y-83389763D01*
G04 #@! TO.C,JP9*
X139059553Y-102119763D02*
X138559553Y-101253737D01*
X139737347Y-100573737D02*
X140237347Y-101439763D01*
G04 #@! TO.C,JP36*
X140139847Y-83199407D02*
X139639847Y-84065433D01*
X138462053Y-83385433D02*
X138962053Y-82519407D01*
G04 #@! TO.C,JP24*
X141638450Y-98976750D02*
X140638450Y-98976750D01*
X140638450Y-97616750D02*
X141638450Y-97616750D01*
G04 #@! TO.C,JP30*
X133603450Y-85616750D02*
X134603450Y-85616750D01*
X134603450Y-86976750D02*
X133603450Y-86976750D01*
G04 #@! TO.C,JP21*
X125839847Y-88519407D02*
X126339847Y-89385433D01*
X125162053Y-90065433D02*
X124662053Y-89199407D01*
G04 #@! TO.C,JP33*
X143644847Y-89299407D02*
X143144847Y-90165433D01*
X141967053Y-89485433D02*
X142467053Y-88619407D01*
G04 #@! TO.C,JP22*
X129839847Y-89308067D02*
X129339847Y-90174093D01*
X128162053Y-89494093D02*
X128662053Y-88628067D01*
G04 #@! TO.C,J1*
X117288000Y-105252400D02*
X119948000Y-105252400D01*
X117288000Y-95032400D02*
X117288000Y-105252400D01*
X119948000Y-95032400D02*
X119948000Y-105252400D01*
X117288000Y-95032400D02*
X119948000Y-95032400D01*
X117288000Y-93762400D02*
X117288000Y-92432400D01*
X117288000Y-92432400D02*
X118618000Y-92432400D01*
G04 #@! TO.C,JP29*
X145033450Y-92976750D02*
X144033450Y-92976750D01*
X144033450Y-91616750D02*
X145033450Y-91616750D01*
G04 #@! TO.C,JP41*
X137098450Y-91616750D02*
X138098450Y-91616750D01*
X138098450Y-92976750D02*
X137098450Y-92976750D01*
G04 #@! TO.C,JP31*
X132742347Y-88523737D02*
X133242347Y-89389763D01*
X132064553Y-90069763D02*
X131564553Y-89203737D01*
G04 #@! TO.C,SOT23*
X139085280Y-109279840D02*
X138155280Y-109279840D01*
X135925280Y-109279840D02*
X136855280Y-109279840D01*
X135925280Y-109279840D02*
X135925280Y-111439840D01*
X139085280Y-109279840D02*
X139085280Y-110739840D01*
G04 #@! TO.C,JP6*
X132169553Y-102069763D02*
X131669553Y-101203737D01*
X132847347Y-100523737D02*
X133347347Y-101389763D01*
G04 #@! TO.C,JP18*
X147403450Y-85616750D02*
X148403450Y-85616750D01*
X148403450Y-86976750D02*
X147403450Y-86976750D01*
G04 #@! TO.C,JP32*
X140533450Y-85616750D02*
X141533450Y-85616750D01*
X141533450Y-86976750D02*
X140533450Y-86976750D01*
G04 #@! TO.C,JP34*
X135564553Y-96069763D02*
X135064553Y-95203737D01*
X136242347Y-94523737D02*
X136742347Y-95389763D01*
G04 #@! TO.C,JP35*
X140242347Y-95303737D02*
X139742347Y-96169763D01*
X138564553Y-95489763D02*
X139064553Y-94623737D01*
G04 #@! TO.C,JP39*
X138969553Y-90069763D02*
X138469553Y-89203737D01*
X139647347Y-88523737D02*
X140147347Y-89389763D01*
G04 #@! TO.C,JP69*
X128669553Y-96069763D02*
X128169553Y-95203737D01*
X129347347Y-94523737D02*
X129847347Y-95389763D01*
G04 #@! TO.C,JP70*
X145462053Y-95394093D02*
X145962053Y-94528067D01*
X147139847Y-95208067D02*
X146639847Y-96074093D01*
G04 #@! TO.C,JP71*
X138133450Y-80976750D02*
X137133450Y-80976750D01*
X137133450Y-79616750D02*
X138133450Y-79616750D01*
G04 #@! TO.C,JP7*
X138098450Y-105026750D02*
X137098450Y-105026750D01*
X137098450Y-103666750D02*
X138098450Y-103666750D01*
G04 #@! TO.C,JP8*
X143647347Y-101253737D02*
X143147347Y-102119763D01*
X141969553Y-101439763D02*
X142469553Y-100573737D01*
G04 #@! TO.C,JP11*
X148869553Y-89489763D02*
X149369553Y-88623737D01*
X150547347Y-89303737D02*
X150047347Y-90169763D01*
G04 #@! TO.C,JP13*
X144003450Y-79616750D02*
X145003450Y-79616750D01*
X145003450Y-80976750D02*
X144003450Y-80976750D01*
G04 #@! TO.C,JP14*
X133242347Y-83203737D02*
X132742347Y-84069763D01*
X131564553Y-83389763D02*
X132064553Y-82523737D01*
G04 #@! TO.C,JP16*
X134733450Y-98976750D02*
X133733450Y-98976750D01*
X133733450Y-97616750D02*
X134733450Y-97616750D01*
G04 #@! TO.C,JP17*
X147142347Y-83303737D02*
X146642347Y-84169763D01*
X145464553Y-83489763D02*
X145964553Y-82623737D01*
G04 #@! TO.C,JP19*
X131183450Y-80976750D02*
X130183450Y-80976750D01*
X130183450Y-79616750D02*
X131183450Y-79616750D01*
G04 #@! TO.C,JP20*
X124664553Y-83389763D02*
X125164553Y-82523737D01*
X126342347Y-83203737D02*
X125842347Y-84069763D01*
G04 #@! TO.C,JP23*
X142464553Y-84069763D02*
X141964553Y-83203737D01*
X143142347Y-82523737D02*
X143642347Y-83389763D01*
G04 #@! TO.C,JP25*
X127733450Y-86976750D02*
X126733450Y-86976750D01*
X126733450Y-85616750D02*
X127733450Y-85616750D01*
G04 #@! TO.C,JP26*
X129292347Y-82523737D02*
X129792347Y-83389763D01*
X128614553Y-84069763D02*
X128114553Y-83203737D01*
G04 #@! TO.C,JP28*
X131664553Y-95489763D02*
X132164553Y-94623737D01*
X133342347Y-95303737D02*
X132842347Y-96169763D01*
G04 #@! TO.C,JP37*
X130198450Y-91616750D02*
X131198450Y-91616750D01*
X131198450Y-92976750D02*
X130198450Y-92976750D01*
G04 #@! TO.C,JP38*
X143142347Y-94523737D02*
X143642347Y-95389763D01*
X142464553Y-96069763D02*
X141964553Y-95203737D01*
G04 #@! TO.C,JP45*
X136242347Y-82523737D02*
X136742347Y-83389763D01*
X135564553Y-84069763D02*
X135064553Y-83203737D01*
G04 #@! TO.C,JP1*
X122300000Y-97120000D02*
X123300000Y-97120000D01*
X123300000Y-98480000D02*
X122300000Y-98480000D01*
G04 #@! TO.C,JP2*
X118380000Y-89000000D02*
X118380000Y-90000000D01*
X117020000Y-90000000D02*
X117020000Y-89000000D01*
G04 #@! TO.C,JP3*
X115320000Y-90000000D02*
X115320000Y-89000000D01*
X116680000Y-89000000D02*
X116680000Y-90000000D01*
G04 #@! TO.C,JP4*
X122300000Y-100520000D02*
X123300000Y-100520000D01*
X123300000Y-101880000D02*
X122300000Y-101880000D01*
G04 #@! TO.C,JP5*
X117920000Y-108500000D02*
X117920000Y-107500000D01*
X119280000Y-107500000D02*
X119280000Y-108500000D01*
G04 #@! TO.C,SOT23*
D15*
X135457142Y-113004761D02*
X135600000Y-113052380D01*
X135838095Y-113052380D01*
X135933333Y-113004761D01*
X135980952Y-112957142D01*
X136028571Y-112861904D01*
X136028571Y-112766666D01*
X135980952Y-112671428D01*
X135933333Y-112623809D01*
X135838095Y-112576190D01*
X135647619Y-112528571D01*
X135552380Y-112480952D01*
X135504761Y-112433333D01*
X135457142Y-112338095D01*
X135457142Y-112242857D01*
X135504761Y-112147619D01*
X135552380Y-112100000D01*
X135647619Y-112052380D01*
X135885714Y-112052380D01*
X136028571Y-112100000D01*
X136647619Y-112052380D02*
X136838095Y-112052380D01*
X136933333Y-112100000D01*
X137028571Y-112195238D01*
X137076190Y-112385714D01*
X137076190Y-112719047D01*
X137028571Y-112909523D01*
X136933333Y-113004761D01*
X136838095Y-113052380D01*
X136647619Y-113052380D01*
X136552380Y-113004761D01*
X136457142Y-112909523D01*
X136409523Y-112719047D01*
X136409523Y-112385714D01*
X136457142Y-112195238D01*
X136552380Y-112100000D01*
X136647619Y-112052380D01*
X137361904Y-112052380D02*
X137933333Y-112052380D01*
X137647619Y-113052380D02*
X137647619Y-112052380D01*
X138219047Y-112147619D02*
X138266666Y-112100000D01*
X138361904Y-112052380D01*
X138600000Y-112052380D01*
X138695238Y-112100000D01*
X138742857Y-112147619D01*
X138790476Y-112242857D01*
X138790476Y-112338095D01*
X138742857Y-112480952D01*
X138171428Y-113052380D01*
X138790476Y-113052380D01*
X139123809Y-112052380D02*
X139742857Y-112052380D01*
X139409523Y-112433333D01*
X139552380Y-112433333D01*
X139647619Y-112480952D01*
X139695238Y-112528571D01*
X139742857Y-112623809D01*
X139742857Y-112861904D01*
X139695238Y-112957142D01*
X139647619Y-113004761D01*
X139552380Y-113052380D01*
X139266666Y-113052380D01*
X139171428Y-113004761D01*
X139123809Y-112957142D01*
G04 #@! TD*
M02*
