%FSLAX45Y45*%
G04 Gerber Fmt 4.5, Leading zero omitted, Abs format (unit mm)*
G04 Created by KiCad (PCBNEW (5.0.2)-1) date 12/03/2019 22:47:55*
%MOMM*%
%LPD*%
G01*
G04 APERTURE LIST*
%ADD10C,0.100000*%
%ADD11C,0.200000*%
%ADD12C,0.300000*%
G04 APERTURE END LIST*
D10*
X16179800Y-11709400D02*
G75*
G02X15671800Y-12217400I-508000J0D01*
G01*
X11861800Y-12217400D02*
G75*
G02X11353800Y-11709400I0J508000D01*
G01*
X11353800Y-7899400D02*
G75*
G02X11861800Y-7391400I508000J0D01*
G01*
X15671800Y-7391400D02*
G75*
G02X16179800Y-7899400I0J-508000D01*
G01*
X11353800Y-11709400D02*
X11353800Y-7899400D01*
X15671800Y-12217400D02*
X11861800Y-12217400D01*
X16179800Y-7899400D02*
X16179800Y-11709400D01*
X11861800Y-7391400D02*
X15671800Y-7391400D01*
D11*
X11990000Y-10890000D02*
X12030000Y-10930000D01*
X12030000Y-10890000D02*
X11990000Y-10930000D01*
X12415800Y-9043000D02*
X12455800Y-9083000D01*
X12455800Y-9043000D02*
X12415800Y-9083000D01*
X12415800Y-9373000D02*
X12455800Y-9413000D01*
X12455800Y-9373000D02*
X12415800Y-9413000D01*
X12520000Y-10100000D02*
X12560000Y-10140000D01*
X12560000Y-10100000D02*
X12520000Y-10140000D01*
X12647500Y-8375000D02*
X12687500Y-8415000D01*
X12687500Y-8375000D02*
X12647500Y-8415000D01*
X12695800Y-8873000D02*
X12735800Y-8913000D01*
X12735800Y-8873000D02*
X12695800Y-8913000D01*
X12705800Y-9543000D02*
X12745800Y-9583000D01*
X12745800Y-9543000D02*
X12705800Y-9583000D01*
X12765800Y-9643000D02*
X12805800Y-9683000D01*
X12805800Y-9643000D02*
X12765800Y-9683000D01*
X12765800Y-9973000D02*
X12805800Y-10013000D01*
X12805800Y-9973000D02*
X12765800Y-10013000D01*
X12985800Y-9043000D02*
X13025800Y-9083000D01*
X13025800Y-9043000D02*
X12985800Y-9083000D01*
X12990000Y-9372500D02*
X13030000Y-9412500D01*
X13030000Y-9372500D02*
X12990000Y-9412500D01*
X13055000Y-9475000D02*
X13095000Y-9515000D01*
X13095000Y-9475000D02*
X13055000Y-9515000D01*
X13055800Y-10100000D02*
X13095800Y-10140000D01*
X13095800Y-10100000D02*
X13055800Y-10140000D01*
X13095800Y-7843000D02*
X13135800Y-7883000D01*
X13135800Y-7843000D02*
X13095800Y-7883000D01*
X13105800Y-8173000D02*
X13145800Y-8213000D01*
X13145800Y-8173000D02*
X13105800Y-8213000D01*
X13110000Y-9040000D02*
X13150000Y-9080000D01*
X13150000Y-9040000D02*
X13110000Y-9080000D01*
X13110000Y-9372500D02*
X13150000Y-9412500D01*
X13150000Y-9372500D02*
X13110000Y-9412500D01*
X13295000Y-9942500D02*
X13335000Y-9982500D01*
X13335000Y-9942500D02*
X13295000Y-9982500D01*
X13305000Y-9647500D02*
X13345000Y-9687500D01*
X13345000Y-9647500D02*
X13305000Y-9687500D01*
X13395800Y-7673000D02*
X13435800Y-7713000D01*
X13435800Y-7673000D02*
X13395800Y-7713000D01*
X13395800Y-8343000D02*
X13435800Y-8383000D01*
X13435800Y-8343000D02*
X13395800Y-8383000D01*
X13395800Y-8873000D02*
X13435800Y-8913000D01*
X13435800Y-8873000D02*
X13395800Y-8913000D01*
X13400000Y-9530000D02*
X13440000Y-9570000D01*
X13440000Y-9530000D02*
X13400000Y-9570000D01*
X13455800Y-8443000D02*
X13495800Y-8483000D01*
X13495800Y-8443000D02*
X13455800Y-8483000D01*
X13455800Y-8783000D02*
X13495800Y-8823000D01*
X13495800Y-8783000D02*
X13455800Y-8823000D01*
X13670000Y-9045000D02*
X13710000Y-9085000D01*
X13710000Y-9045000D02*
X13670000Y-9085000D01*
X13670000Y-9370000D02*
X13710000Y-9410000D01*
X13710000Y-9370000D02*
X13670000Y-9410000D01*
X13685000Y-8170000D02*
X13725000Y-8210000D01*
X13725000Y-8170000D02*
X13685000Y-8210000D01*
X13685800Y-7833000D02*
X13725800Y-7873000D01*
X13725800Y-7833000D02*
X13685800Y-7873000D01*
X13735800Y-8283000D02*
X13775800Y-8323000D01*
X13775800Y-8283000D02*
X13735800Y-8323000D01*
X13745000Y-8935000D02*
X13785000Y-8975000D01*
X13785000Y-8935000D02*
X13745000Y-8975000D01*
X13745000Y-10277500D02*
X13785000Y-10317500D01*
X13785000Y-10277500D02*
X13745000Y-10317500D01*
X13795800Y-7843000D02*
X13835800Y-7883000D01*
X13835800Y-7843000D02*
X13795800Y-7883000D01*
X13795800Y-8173000D02*
X13835800Y-8213000D01*
X13835800Y-8173000D02*
X13795800Y-8213000D01*
X13820000Y-9045000D02*
X13860000Y-9085000D01*
X13860000Y-9045000D02*
X13820000Y-9085000D01*
X13820278Y-9369513D02*
X13860278Y-9409513D01*
X13860278Y-9369513D02*
X13820278Y-9409513D01*
X13860000Y-10870000D02*
X13900000Y-10910000D01*
X13900000Y-10870000D02*
X13860000Y-10910000D01*
X14015800Y-8783000D02*
X14055800Y-8823000D01*
X14055800Y-8783000D02*
X14015800Y-8823000D01*
X14025800Y-8433000D02*
X14065800Y-8473000D01*
X14065800Y-8433000D02*
X14025800Y-8473000D01*
X14085800Y-7673000D02*
X14125800Y-7713000D01*
X14125800Y-7673000D02*
X14085800Y-7713000D01*
X14085800Y-8343000D02*
X14125800Y-8383000D01*
X14125800Y-8343000D02*
X14085800Y-8383000D01*
X14085800Y-8877500D02*
X14125800Y-8917500D01*
X14125800Y-8877500D02*
X14085800Y-8917500D01*
X14096509Y-9527359D02*
X14136509Y-9567359D01*
X14136509Y-9527359D02*
X14096509Y-9567359D01*
X14167501Y-9645000D02*
X14207501Y-9685000D01*
X14207501Y-9645000D02*
X14167501Y-9685000D01*
X14167501Y-9969144D02*
X14207501Y-10009144D01*
X14207501Y-9969144D02*
X14167501Y-10009144D01*
X14375000Y-7845000D02*
X14415000Y-7885000D01*
X14415000Y-7845000D02*
X14375000Y-7885000D01*
X14375800Y-9055000D02*
X14415800Y-9095000D01*
X14415800Y-9055000D02*
X14375800Y-9095000D01*
X14375800Y-9372500D02*
X14415800Y-9412500D01*
X14415800Y-9372500D02*
X14375800Y-9412500D01*
X14435800Y-9483000D02*
X14475800Y-9523000D01*
X14475800Y-9483000D02*
X14435800Y-9523000D01*
X14450000Y-10070000D02*
X14490000Y-10110000D01*
X14490000Y-10070000D02*
X14450000Y-10110000D01*
X14485800Y-9053000D02*
X14525800Y-9093000D01*
X14525800Y-9053000D02*
X14485800Y-9093000D01*
X14485800Y-9373000D02*
X14525800Y-9413000D01*
X14525800Y-9373000D02*
X14485800Y-9413000D01*
X14540000Y-7630000D02*
X14580000Y-7670000D01*
X14580000Y-7630000D02*
X14540000Y-7670000D01*
X14715800Y-9643000D02*
X14755800Y-9683000D01*
X14755800Y-9643000D02*
X14715800Y-9683000D01*
X14715800Y-9973000D02*
X14755800Y-10013000D01*
X14755800Y-9973000D02*
X14715800Y-10013000D01*
X14775800Y-8883000D02*
X14815800Y-8923000D01*
X14815800Y-8883000D02*
X14775800Y-8923000D01*
X14775800Y-9533000D02*
X14815800Y-9573000D01*
X14815800Y-9533000D02*
X14775800Y-9573000D01*
X14837500Y-8372500D02*
X14877500Y-8412500D01*
X14877500Y-8372500D02*
X14837500Y-8412500D01*
X15045800Y-9373000D02*
X15085800Y-9413000D01*
X15085800Y-9373000D02*
X15045800Y-9413000D01*
X15055800Y-9053000D02*
X15095800Y-9093000D01*
X15095800Y-9053000D02*
X15055800Y-9093000D01*
X11911800Y-9376240D02*
G75*
G03X11911800Y-9376240I-50000J0D01*
G01*
X11911800Y-9630240D02*
G75*
G03X11911800Y-9630240I-50000J0D01*
G01*
X11911800Y-9884240D02*
G75*
G03X11911800Y-9884240I-50000J0D01*
G01*
X11911800Y-10138240D02*
G75*
G03X11911800Y-10138240I-50000J0D01*
G01*
X11911800Y-10392240D02*
G75*
G03X11911800Y-10392240I-50000J0D01*
G01*
D12*
X11635228Y-12688114D02*
X11635228Y-12388114D01*
X11706657Y-12388114D01*
X11749514Y-12402400D01*
X11778086Y-12430971D01*
X11792371Y-12459543D01*
X11806657Y-12516686D01*
X11806657Y-12559543D01*
X11792371Y-12616686D01*
X11778086Y-12645257D01*
X11749514Y-12673829D01*
X11706657Y-12688114D01*
X11635228Y-12688114D01*
X11935228Y-12688114D02*
X11935228Y-12488114D01*
X11935228Y-12545257D02*
X11949514Y-12516686D01*
X11963800Y-12502400D01*
X11992371Y-12488114D01*
X12020943Y-12488114D01*
X12120943Y-12688114D02*
X12120943Y-12488114D01*
X12120943Y-12388114D02*
X12106657Y-12402400D01*
X12120943Y-12416686D01*
X12135228Y-12402400D01*
X12120943Y-12388114D01*
X12120943Y-12416686D01*
X12306657Y-12688114D02*
X12278086Y-12673829D01*
X12263800Y-12645257D01*
X12263800Y-12388114D01*
X12463800Y-12688114D02*
X12435228Y-12673829D01*
X12420943Y-12645257D01*
X12420943Y-12388114D01*
X12806657Y-12688114D02*
X12806657Y-12388114D01*
X12906657Y-12602400D01*
X13006657Y-12388114D01*
X13006657Y-12688114D01*
X13278086Y-12688114D02*
X13278086Y-12530971D01*
X13263800Y-12502400D01*
X13235228Y-12488114D01*
X13178086Y-12488114D01*
X13149514Y-12502400D01*
X13278086Y-12673829D02*
X13249514Y-12688114D01*
X13178086Y-12688114D01*
X13149514Y-12673829D01*
X13135228Y-12645257D01*
X13135228Y-12616686D01*
X13149514Y-12588114D01*
X13178086Y-12573829D01*
X13249514Y-12573829D01*
X13278086Y-12559543D01*
X13420943Y-12488114D02*
X13420943Y-12788114D01*
X13420943Y-12502400D02*
X13449514Y-12488114D01*
X13506657Y-12488114D01*
X13535228Y-12502400D01*
X13549514Y-12516686D01*
X13563800Y-12545257D01*
X13563800Y-12630971D01*
X13549514Y-12659543D01*
X13535228Y-12673829D01*
X13506657Y-12688114D01*
X13449514Y-12688114D01*
X13420943Y-12673829D01*
X13692371Y-12659543D02*
X13706657Y-12673829D01*
X13692371Y-12688114D01*
X13678086Y-12673829D01*
X13692371Y-12659543D01*
X13692371Y-12688114D01*
X13692371Y-12502400D02*
X13706657Y-12516686D01*
X13692371Y-12530971D01*
X13678086Y-12516686D01*
X13692371Y-12502400D01*
X13692371Y-12530971D01*
X11308800Y-13162400D02*
X11348800Y-13202400D01*
X11348800Y-13162400D02*
X11308800Y-13202400D01*
X11692371Y-13018114D02*
X11720943Y-13018114D01*
X11749514Y-13032400D01*
X11763800Y-13046686D01*
X11778086Y-13075257D01*
X11792371Y-13132400D01*
X11792371Y-13203829D01*
X11778086Y-13260971D01*
X11763800Y-13289543D01*
X11749514Y-13303829D01*
X11720943Y-13318114D01*
X11692371Y-13318114D01*
X11663800Y-13303829D01*
X11649514Y-13289543D01*
X11635228Y-13260971D01*
X11620943Y-13203829D01*
X11620943Y-13132400D01*
X11635228Y-13075257D01*
X11649514Y-13046686D01*
X11663800Y-13032400D01*
X11692371Y-13018114D01*
X11920943Y-13289543D02*
X11935228Y-13303829D01*
X11920943Y-13318114D01*
X11906657Y-13303829D01*
X11920943Y-13289543D01*
X11920943Y-13318114D01*
X12192371Y-13118114D02*
X12192371Y-13318114D01*
X12120943Y-13003829D02*
X12049514Y-13218114D01*
X12235228Y-13218114D01*
X12406657Y-13018114D02*
X12435228Y-13018114D01*
X12463800Y-13032400D01*
X12478086Y-13046686D01*
X12492371Y-13075257D01*
X12506657Y-13132400D01*
X12506657Y-13203829D01*
X12492371Y-13260971D01*
X12478086Y-13289543D01*
X12463800Y-13303829D01*
X12435228Y-13318114D01*
X12406657Y-13318114D01*
X12378086Y-13303829D01*
X12363800Y-13289543D01*
X12349514Y-13260971D01*
X12335228Y-13203829D01*
X12335228Y-13132400D01*
X12349514Y-13075257D01*
X12363800Y-13046686D01*
X12378086Y-13032400D01*
X12406657Y-13018114D01*
X12635228Y-13318114D02*
X12635228Y-13118114D01*
X12635228Y-13146686D02*
X12649514Y-13132400D01*
X12678086Y-13118114D01*
X12720943Y-13118114D01*
X12749514Y-13132400D01*
X12763800Y-13160971D01*
X12763800Y-13318114D01*
X12763800Y-13160971D02*
X12778086Y-13132400D01*
X12806657Y-13118114D01*
X12849514Y-13118114D01*
X12878086Y-13132400D01*
X12892371Y-13160971D01*
X12892371Y-13318114D01*
X13035228Y-13318114D02*
X13035228Y-13118114D01*
X13035228Y-13146686D02*
X13049514Y-13132400D01*
X13078086Y-13118114D01*
X13120943Y-13118114D01*
X13149514Y-13132400D01*
X13163800Y-13160971D01*
X13163800Y-13318114D01*
X13163800Y-13160971D02*
X13178086Y-13132400D01*
X13206657Y-13118114D01*
X13249514Y-13118114D01*
X13278086Y-13132400D01*
X13292371Y-13160971D01*
X13292371Y-13318114D01*
X13878086Y-13003829D02*
X13620943Y-13389543D01*
X14263800Y-13018114D02*
X14292371Y-13018114D01*
X14320943Y-13032400D01*
X14335228Y-13046686D01*
X14349514Y-13075257D01*
X14363800Y-13132400D01*
X14363800Y-13203829D01*
X14349514Y-13260971D01*
X14335228Y-13289543D01*
X14320943Y-13303829D01*
X14292371Y-13318114D01*
X14263800Y-13318114D01*
X14235228Y-13303829D01*
X14220943Y-13289543D01*
X14206657Y-13260971D01*
X14192371Y-13203829D01*
X14192371Y-13132400D01*
X14206657Y-13075257D01*
X14220943Y-13046686D01*
X14235228Y-13032400D01*
X14263800Y-13018114D01*
X14492371Y-13289543D02*
X14506657Y-13303829D01*
X14492371Y-13318114D01*
X14478086Y-13303829D01*
X14492371Y-13289543D01*
X14492371Y-13318114D01*
X14692371Y-13018114D02*
X14720943Y-13018114D01*
X14749514Y-13032400D01*
X14763800Y-13046686D01*
X14778086Y-13075257D01*
X14792371Y-13132400D01*
X14792371Y-13203829D01*
X14778086Y-13260971D01*
X14763800Y-13289543D01*
X14749514Y-13303829D01*
X14720943Y-13318114D01*
X14692371Y-13318114D01*
X14663800Y-13303829D01*
X14649514Y-13289543D01*
X14635228Y-13260971D01*
X14620943Y-13203829D01*
X14620943Y-13132400D01*
X14635228Y-13075257D01*
X14649514Y-13046686D01*
X14663800Y-13032400D01*
X14692371Y-13018114D01*
X15078086Y-13318114D02*
X14906657Y-13318114D01*
X14992371Y-13318114D02*
X14992371Y-13018114D01*
X14963800Y-13060971D01*
X14935228Y-13089543D01*
X14906657Y-13103829D01*
X15335228Y-13018114D02*
X15278086Y-13018114D01*
X15249514Y-13032400D01*
X15235228Y-13046686D01*
X15206657Y-13089543D01*
X15192371Y-13146686D01*
X15192371Y-13260971D01*
X15206657Y-13289543D01*
X15220943Y-13303829D01*
X15249514Y-13318114D01*
X15306657Y-13318114D01*
X15335228Y-13303829D01*
X15349514Y-13289543D01*
X15363800Y-13260971D01*
X15363800Y-13189543D01*
X15349514Y-13160971D01*
X15335228Y-13146686D01*
X15306657Y-13132400D01*
X15249514Y-13132400D01*
X15220943Y-13146686D01*
X15206657Y-13160971D01*
X15192371Y-13189543D01*
X15478086Y-13018114D02*
X15478086Y-13075257D01*
X15592371Y-13018114D02*
X15592371Y-13075257D01*
X16035228Y-13432400D02*
X16020943Y-13418114D01*
X15992371Y-13375257D01*
X15978086Y-13346686D01*
X15963800Y-13303829D01*
X15949514Y-13232400D01*
X15949514Y-13175257D01*
X15963800Y-13103829D01*
X15978086Y-13060971D01*
X15992371Y-13032400D01*
X16020943Y-12989543D01*
X16035228Y-12975257D01*
X16278086Y-13018114D02*
X16220943Y-13018114D01*
X16192371Y-13032400D01*
X16178086Y-13046686D01*
X16149514Y-13089543D01*
X16135228Y-13146686D01*
X16135228Y-13260971D01*
X16149514Y-13289543D01*
X16163800Y-13303829D01*
X16192371Y-13318114D01*
X16249514Y-13318114D01*
X16278086Y-13303829D01*
X16292371Y-13289543D01*
X16306657Y-13260971D01*
X16306657Y-13189543D01*
X16292371Y-13160971D01*
X16278086Y-13146686D01*
X16249514Y-13132400D01*
X16192371Y-13132400D01*
X16163800Y-13146686D01*
X16149514Y-13160971D01*
X16135228Y-13189543D01*
X16492371Y-13018114D02*
X16520943Y-13018114D01*
X16549514Y-13032400D01*
X16563800Y-13046686D01*
X16578086Y-13075257D01*
X16592371Y-13132400D01*
X16592371Y-13203829D01*
X16578086Y-13260971D01*
X16563800Y-13289543D01*
X16549514Y-13303829D01*
X16520943Y-13318114D01*
X16492371Y-13318114D01*
X16463800Y-13303829D01*
X16449514Y-13289543D01*
X16435228Y-13260971D01*
X16420943Y-13203829D01*
X16420943Y-13132400D01*
X16435228Y-13075257D01*
X16449514Y-13046686D01*
X16463800Y-13032400D01*
X16492371Y-13018114D01*
X16949514Y-13318114D02*
X16949514Y-13018114D01*
X17078086Y-13318114D02*
X17078086Y-13160971D01*
X17063800Y-13132400D01*
X17035228Y-13118114D01*
X16992371Y-13118114D01*
X16963800Y-13132400D01*
X16949514Y-13146686D01*
X17263800Y-13318114D02*
X17235228Y-13303829D01*
X17220943Y-13289543D01*
X17206657Y-13260971D01*
X17206657Y-13175257D01*
X17220943Y-13146686D01*
X17235228Y-13132400D01*
X17263800Y-13118114D01*
X17306657Y-13118114D01*
X17335228Y-13132400D01*
X17349514Y-13146686D01*
X17363800Y-13175257D01*
X17363800Y-13260971D01*
X17349514Y-13289543D01*
X17335228Y-13303829D01*
X17306657Y-13318114D01*
X17263800Y-13318114D01*
X17535228Y-13318114D02*
X17506657Y-13303829D01*
X17492371Y-13275257D01*
X17492371Y-13018114D01*
X17763800Y-13303829D02*
X17735228Y-13318114D01*
X17678086Y-13318114D01*
X17649514Y-13303829D01*
X17635228Y-13275257D01*
X17635228Y-13160971D01*
X17649514Y-13132400D01*
X17678086Y-13118114D01*
X17735228Y-13118114D01*
X17763800Y-13132400D01*
X17778086Y-13160971D01*
X17778086Y-13189543D01*
X17635228Y-13218114D01*
X17892371Y-13303829D02*
X17920943Y-13318114D01*
X17978086Y-13318114D01*
X18006657Y-13303829D01*
X18020943Y-13275257D01*
X18020943Y-13260971D01*
X18006657Y-13232400D01*
X17978086Y-13218114D01*
X17935228Y-13218114D01*
X17906657Y-13203829D01*
X17892371Y-13175257D01*
X17892371Y-13160971D01*
X17906657Y-13132400D01*
X17935228Y-13118114D01*
X17978086Y-13118114D01*
X18006657Y-13132400D01*
X18120943Y-13432400D02*
X18135228Y-13418114D01*
X18163800Y-13375257D01*
X18178086Y-13346686D01*
X18192371Y-13303829D01*
X18206657Y-13232400D01*
X18206657Y-13175257D01*
X18192371Y-13103829D01*
X18178086Y-13060971D01*
X18163800Y-13032400D01*
X18135228Y-12989543D01*
X18120943Y-12975257D01*
X11348800Y-13578400D02*
G75*
G03X11348800Y-13578400I-50000J0D01*
G01*
X11792371Y-13714114D02*
X11620943Y-13714114D01*
X11706657Y-13714114D02*
X11706657Y-13414114D01*
X11678086Y-13456971D01*
X11649514Y-13485543D01*
X11620943Y-13499829D01*
X11920943Y-13685543D02*
X11935228Y-13699829D01*
X11920943Y-13714114D01*
X11906657Y-13699829D01*
X11920943Y-13685543D01*
X11920943Y-13714114D01*
X12120943Y-13414114D02*
X12149514Y-13414114D01*
X12178086Y-13428400D01*
X12192371Y-13442686D01*
X12206657Y-13471257D01*
X12220943Y-13528400D01*
X12220943Y-13599829D01*
X12206657Y-13656971D01*
X12192371Y-13685543D01*
X12178086Y-13699829D01*
X12149514Y-13714114D01*
X12120943Y-13714114D01*
X12092371Y-13699829D01*
X12078086Y-13685543D01*
X12063800Y-13656971D01*
X12049514Y-13599829D01*
X12049514Y-13528400D01*
X12063800Y-13471257D01*
X12078086Y-13442686D01*
X12092371Y-13428400D01*
X12120943Y-13414114D01*
X12406657Y-13414114D02*
X12435228Y-13414114D01*
X12463800Y-13428400D01*
X12478086Y-13442686D01*
X12492371Y-13471257D01*
X12506657Y-13528400D01*
X12506657Y-13599829D01*
X12492371Y-13656971D01*
X12478086Y-13685543D01*
X12463800Y-13699829D01*
X12435228Y-13714114D01*
X12406657Y-13714114D01*
X12378086Y-13699829D01*
X12363800Y-13685543D01*
X12349514Y-13656971D01*
X12335228Y-13599829D01*
X12335228Y-13528400D01*
X12349514Y-13471257D01*
X12363800Y-13442686D01*
X12378086Y-13428400D01*
X12406657Y-13414114D01*
X12635228Y-13714114D02*
X12635228Y-13514114D01*
X12635228Y-13542686D02*
X12649514Y-13528400D01*
X12678086Y-13514114D01*
X12720943Y-13514114D01*
X12749514Y-13528400D01*
X12763800Y-13556971D01*
X12763800Y-13714114D01*
X12763800Y-13556971D02*
X12778086Y-13528400D01*
X12806657Y-13514114D01*
X12849514Y-13514114D01*
X12878086Y-13528400D01*
X12892371Y-13556971D01*
X12892371Y-13714114D01*
X13035228Y-13714114D02*
X13035228Y-13514114D01*
X13035228Y-13542686D02*
X13049514Y-13528400D01*
X13078086Y-13514114D01*
X13120943Y-13514114D01*
X13149514Y-13528400D01*
X13163800Y-13556971D01*
X13163800Y-13714114D01*
X13163800Y-13556971D02*
X13178086Y-13528400D01*
X13206657Y-13514114D01*
X13249514Y-13514114D01*
X13278086Y-13528400D01*
X13292371Y-13556971D01*
X13292371Y-13714114D01*
X13878086Y-13399829D02*
X13620943Y-13785543D01*
X14263800Y-13414114D02*
X14292371Y-13414114D01*
X14320943Y-13428400D01*
X14335228Y-13442686D01*
X14349514Y-13471257D01*
X14363800Y-13528400D01*
X14363800Y-13599829D01*
X14349514Y-13656971D01*
X14335228Y-13685543D01*
X14320943Y-13699829D01*
X14292371Y-13714114D01*
X14263800Y-13714114D01*
X14235228Y-13699829D01*
X14220943Y-13685543D01*
X14206657Y-13656971D01*
X14192371Y-13599829D01*
X14192371Y-13528400D01*
X14206657Y-13471257D01*
X14220943Y-13442686D01*
X14235228Y-13428400D01*
X14263800Y-13414114D01*
X14492371Y-13685543D02*
X14506657Y-13699829D01*
X14492371Y-13714114D01*
X14478086Y-13699829D01*
X14492371Y-13685543D01*
X14492371Y-13714114D01*
X14692371Y-13414114D02*
X14720943Y-13414114D01*
X14749514Y-13428400D01*
X14763800Y-13442686D01*
X14778086Y-13471257D01*
X14792371Y-13528400D01*
X14792371Y-13599829D01*
X14778086Y-13656971D01*
X14763800Y-13685543D01*
X14749514Y-13699829D01*
X14720943Y-13714114D01*
X14692371Y-13714114D01*
X14663800Y-13699829D01*
X14649514Y-13685543D01*
X14635228Y-13656971D01*
X14620943Y-13599829D01*
X14620943Y-13528400D01*
X14635228Y-13471257D01*
X14649514Y-13442686D01*
X14663800Y-13428400D01*
X14692371Y-13414114D01*
X14892371Y-13414114D02*
X15078086Y-13414114D01*
X14978086Y-13528400D01*
X15020943Y-13528400D01*
X15049514Y-13542686D01*
X15063800Y-13556971D01*
X15078086Y-13585543D01*
X15078086Y-13656971D01*
X15063800Y-13685543D01*
X15049514Y-13699829D01*
X15020943Y-13714114D01*
X14935228Y-13714114D01*
X14906657Y-13699829D01*
X14892371Y-13685543D01*
X15220943Y-13714114D02*
X15278086Y-13714114D01*
X15306657Y-13699829D01*
X15320943Y-13685543D01*
X15349514Y-13642686D01*
X15363800Y-13585543D01*
X15363800Y-13471257D01*
X15349514Y-13442686D01*
X15335228Y-13428400D01*
X15306657Y-13414114D01*
X15249514Y-13414114D01*
X15220943Y-13428400D01*
X15206657Y-13442686D01*
X15192371Y-13471257D01*
X15192371Y-13542686D01*
X15206657Y-13571257D01*
X15220943Y-13585543D01*
X15249514Y-13599829D01*
X15306657Y-13599829D01*
X15335228Y-13585543D01*
X15349514Y-13571257D01*
X15363800Y-13542686D01*
X15478086Y-13414114D02*
X15478086Y-13471257D01*
X15592371Y-13414114D02*
X15592371Y-13471257D01*
X16035228Y-13828400D02*
X16020943Y-13814114D01*
X15992371Y-13771257D01*
X15978086Y-13742686D01*
X15963800Y-13699829D01*
X15949514Y-13628400D01*
X15949514Y-13571257D01*
X15963800Y-13499829D01*
X15978086Y-13456971D01*
X15992371Y-13428400D01*
X16020943Y-13385543D01*
X16035228Y-13371257D01*
X16292371Y-13414114D02*
X16149514Y-13414114D01*
X16135228Y-13556971D01*
X16149514Y-13542686D01*
X16178086Y-13528400D01*
X16249514Y-13528400D01*
X16278086Y-13542686D01*
X16292371Y-13556971D01*
X16306657Y-13585543D01*
X16306657Y-13656971D01*
X16292371Y-13685543D01*
X16278086Y-13699829D01*
X16249514Y-13714114D01*
X16178086Y-13714114D01*
X16149514Y-13699829D01*
X16135228Y-13685543D01*
X16663800Y-13714114D02*
X16663800Y-13414114D01*
X16792371Y-13714114D02*
X16792371Y-13556971D01*
X16778086Y-13528400D01*
X16749514Y-13514114D01*
X16706657Y-13514114D01*
X16678086Y-13528400D01*
X16663800Y-13542686D01*
X16978086Y-13714114D02*
X16949514Y-13699829D01*
X16935228Y-13685543D01*
X16920943Y-13656971D01*
X16920943Y-13571257D01*
X16935228Y-13542686D01*
X16949514Y-13528400D01*
X16978086Y-13514114D01*
X17020943Y-13514114D01*
X17049514Y-13528400D01*
X17063800Y-13542686D01*
X17078086Y-13571257D01*
X17078086Y-13656971D01*
X17063800Y-13685543D01*
X17049514Y-13699829D01*
X17020943Y-13714114D01*
X16978086Y-13714114D01*
X17249514Y-13714114D02*
X17220943Y-13699829D01*
X17206657Y-13671257D01*
X17206657Y-13414114D01*
X17478086Y-13699829D02*
X17449514Y-13714114D01*
X17392371Y-13714114D01*
X17363800Y-13699829D01*
X17349514Y-13671257D01*
X17349514Y-13556971D01*
X17363800Y-13528400D01*
X17392371Y-13514114D01*
X17449514Y-13514114D01*
X17478086Y-13528400D01*
X17492371Y-13556971D01*
X17492371Y-13585543D01*
X17349514Y-13614114D01*
X17606657Y-13699829D02*
X17635228Y-13714114D01*
X17692371Y-13714114D01*
X17720943Y-13699829D01*
X17735228Y-13671257D01*
X17735228Y-13656971D01*
X17720943Y-13628400D01*
X17692371Y-13614114D01*
X17649514Y-13614114D01*
X17620943Y-13599829D01*
X17606657Y-13571257D01*
X17606657Y-13556971D01*
X17620943Y-13528400D01*
X17649514Y-13514114D01*
X17692371Y-13514114D01*
X17720943Y-13528400D01*
X17835228Y-13828400D02*
X17849514Y-13814114D01*
X17878086Y-13771257D01*
X17892371Y-13742686D01*
X17906657Y-13699829D01*
X17920943Y-13628400D01*
X17920943Y-13571257D01*
X17906657Y-13499829D01*
X17892371Y-13456971D01*
X17878086Y-13428400D01*
X17849514Y-13385543D01*
X17835228Y-13371257D01*
M02*
