G04 #@! TF.GenerationSoftware,KiCad,Pcbnew,(5.0.2)-1*
G04 #@! TF.CreationDate,2019-03-12T22:47:50+00:00*
G04 #@! TF.ProjectId,crazy-proto - SOT23 - Hex,6372617a-792d-4707-926f-746f202d2053,1.0*
G04 #@! TF.SameCoordinates,Original*
G04 #@! TF.FileFunction,Soldermask,Bot*
G04 #@! TF.FilePolarity,Negative*
%FSLAX46Y46*%
G04 Gerber Fmt 4.6, Leading zero omitted, Abs format (unit mm)*
G04 Created by KiCad (PCBNEW (5.0.2)-1) date 12/03/2019 22:47:50*
%MOMM*%
%LPD*%
G01*
G04 APERTURE LIST*
%ADD10C,0.100000*%
G04 APERTURE END LIST*
D10*
G36*
X157184703Y-115555486D02*
X157475883Y-115676097D01*
X157737944Y-115851201D01*
X157960799Y-116074056D01*
X158135903Y-116336117D01*
X158256514Y-116627297D01*
X158318000Y-116936412D01*
X158318000Y-117251588D01*
X158256514Y-117560703D01*
X158135903Y-117851883D01*
X157960799Y-118113944D01*
X157737944Y-118336799D01*
X157475883Y-118511903D01*
X157184703Y-118632514D01*
X156875588Y-118694000D01*
X156560412Y-118694000D01*
X156251297Y-118632514D01*
X155960117Y-118511903D01*
X155698056Y-118336799D01*
X155475201Y-118113944D01*
X155300097Y-117851883D01*
X155179486Y-117560703D01*
X155118000Y-117251588D01*
X155118000Y-116936412D01*
X155179486Y-116627297D01*
X155300097Y-116336117D01*
X155475201Y-116074056D01*
X155698056Y-115851201D01*
X155960117Y-115676097D01*
X156251297Y-115555486D01*
X156560412Y-115494000D01*
X156875588Y-115494000D01*
X157184703Y-115555486D01*
X157184703Y-115555486D01*
G37*
G36*
X119084703Y-115555486D02*
X119375883Y-115676097D01*
X119637944Y-115851201D01*
X119860799Y-116074056D01*
X120035903Y-116336117D01*
X120156514Y-116627297D01*
X120218000Y-116936412D01*
X120218000Y-117251588D01*
X120156514Y-117560703D01*
X120035903Y-117851883D01*
X119860799Y-118113944D01*
X119637944Y-118336799D01*
X119375883Y-118511903D01*
X119084703Y-118632514D01*
X118775588Y-118694000D01*
X118460412Y-118694000D01*
X118151297Y-118632514D01*
X117860117Y-118511903D01*
X117598056Y-118336799D01*
X117375201Y-118113944D01*
X117200097Y-117851883D01*
X117079486Y-117560703D01*
X117018000Y-117251588D01*
X117018000Y-116936412D01*
X117079486Y-116627297D01*
X117200097Y-116336117D01*
X117375201Y-116074056D01*
X117598056Y-115851201D01*
X117860117Y-115676097D01*
X118151297Y-115555486D01*
X118460412Y-115494000D01*
X118775588Y-115494000D01*
X119084703Y-115555486D01*
X119084703Y-115555486D01*
G37*
G36*
X118784630Y-103084699D02*
X118944855Y-103133303D01*
X119092520Y-103212231D01*
X119221949Y-103318451D01*
X119328169Y-103447880D01*
X119407097Y-103595545D01*
X119455701Y-103755770D01*
X119472112Y-103922400D01*
X119455701Y-104089030D01*
X119407097Y-104249255D01*
X119328169Y-104396920D01*
X119221949Y-104526349D01*
X119092520Y-104632569D01*
X118944855Y-104711497D01*
X118784630Y-104760101D01*
X118659752Y-104772400D01*
X118576248Y-104772400D01*
X118451370Y-104760101D01*
X118291145Y-104711497D01*
X118143480Y-104632569D01*
X118014051Y-104526349D01*
X117907831Y-104396920D01*
X117828903Y-104249255D01*
X117780299Y-104089030D01*
X117763888Y-103922400D01*
X117780299Y-103755770D01*
X117828903Y-103595545D01*
X117907831Y-103447880D01*
X118014051Y-103318451D01*
X118143480Y-103212231D01*
X118291145Y-103133303D01*
X118451370Y-103084699D01*
X118576248Y-103072400D01*
X118659752Y-103072400D01*
X118784630Y-103084699D01*
X118784630Y-103084699D01*
G37*
G36*
X142446326Y-101709255D02*
X142950662Y-102000433D01*
X142350662Y-103039663D01*
X142350661Y-103039663D01*
X141960950Y-102814663D01*
X141571238Y-102589663D01*
X142171238Y-101550433D01*
X142171239Y-101550433D01*
X142446326Y-101709255D01*
X142446326Y-101709255D01*
G37*
G36*
X140635662Y-102589663D02*
X140245950Y-102814663D01*
X139856239Y-103039663D01*
X139856238Y-103039663D01*
X139256238Y-102000433D01*
X139760574Y-101709255D01*
X140035661Y-101550433D01*
X140035662Y-101550433D01*
X140635662Y-102589663D01*
X140635662Y-102589663D01*
G37*
G36*
X133745662Y-102539663D02*
X133659059Y-102589663D01*
X132966239Y-102989663D01*
X132966238Y-102989663D01*
X132366238Y-101950433D01*
X133061489Y-101549030D01*
X133145661Y-101500433D01*
X133145662Y-101500433D01*
X133745662Y-102539663D01*
X133745662Y-102539663D01*
G37*
G36*
X135632929Y-101709255D02*
X136043162Y-101946103D01*
X135443162Y-102985333D01*
X135443161Y-102985333D01*
X135053450Y-102760333D01*
X134663738Y-102535333D01*
X135263738Y-101496103D01*
X135263739Y-101496103D01*
X135632929Y-101709255D01*
X135632929Y-101709255D01*
G37*
G36*
X118784630Y-100544699D02*
X118944855Y-100593303D01*
X119092520Y-100672231D01*
X119221949Y-100778451D01*
X119328169Y-100907880D01*
X119407097Y-101055545D01*
X119455701Y-101215770D01*
X119472112Y-101382400D01*
X119455701Y-101549030D01*
X119407097Y-101709255D01*
X119328169Y-101856920D01*
X119221949Y-101986349D01*
X119092520Y-102092569D01*
X118944855Y-102171497D01*
X118784630Y-102220101D01*
X118659752Y-102232400D01*
X118576248Y-102232400D01*
X118451370Y-102220101D01*
X118291145Y-102171497D01*
X118143480Y-102092569D01*
X118014051Y-101986349D01*
X117907831Y-101856920D01*
X117828903Y-101709255D01*
X117780299Y-101549030D01*
X117763888Y-101382400D01*
X117780299Y-101215770D01*
X117828903Y-101055545D01*
X117907831Y-100907880D01*
X118014051Y-100778451D01*
X118143480Y-100672231D01*
X118291145Y-100593303D01*
X118451370Y-100544699D01*
X118576248Y-100532400D01*
X118659752Y-100532400D01*
X118784630Y-100544699D01*
X118784630Y-100544699D01*
G37*
G36*
X143660950Y-99870177D02*
X144050662Y-100095177D01*
X143450662Y-101134407D01*
X143450661Y-101134407D01*
X143058305Y-100907880D01*
X142671238Y-100684407D01*
X143271238Y-99645177D01*
X143271239Y-99645177D01*
X143660950Y-99870177D01*
X143660950Y-99870177D01*
G37*
G36*
X139535662Y-100684407D02*
X139148595Y-100907880D01*
X138756239Y-101134407D01*
X138756238Y-101134407D01*
X138156238Y-100095177D01*
X138545950Y-99870177D01*
X138935661Y-99645177D01*
X138935662Y-99645177D01*
X139535662Y-100684407D01*
X139535662Y-100684407D01*
G37*
G36*
X132645662Y-100634407D02*
X132559059Y-100684407D01*
X131866239Y-101084407D01*
X131866238Y-101084407D01*
X131266238Y-100045177D01*
X131655950Y-99820177D01*
X132045661Y-99595177D01*
X132045662Y-99595177D01*
X132645662Y-100634407D01*
X132645662Y-100634407D01*
G37*
G36*
X136753450Y-99815847D02*
X137143162Y-100040847D01*
X136543162Y-101080077D01*
X136543161Y-101080077D01*
X136153450Y-100855077D01*
X135763738Y-100630077D01*
X136363738Y-99590847D01*
X136363739Y-99590847D01*
X136753450Y-99815847D01*
X136753450Y-99815847D01*
G37*
G36*
X118784630Y-98004699D02*
X118944855Y-98053303D01*
X119092520Y-98132231D01*
X119221949Y-98238451D01*
X119328169Y-98367880D01*
X119407097Y-98515545D01*
X119455701Y-98675770D01*
X119472112Y-98842400D01*
X119455701Y-99009030D01*
X119407097Y-99169255D01*
X119328169Y-99316920D01*
X119221949Y-99446349D01*
X119092520Y-99552569D01*
X118944855Y-99631497D01*
X118784630Y-99680101D01*
X118659752Y-99692400D01*
X118576248Y-99692400D01*
X118451370Y-99680101D01*
X118291145Y-99631497D01*
X118143480Y-99552569D01*
X118014051Y-99446349D01*
X117907831Y-99316920D01*
X117828903Y-99169255D01*
X117780299Y-99009030D01*
X117763888Y-98842400D01*
X117780299Y-98675770D01*
X117828903Y-98515545D01*
X117907831Y-98367880D01*
X118014051Y-98238451D01*
X118143480Y-98132231D01*
X118291145Y-98053303D01*
X118451370Y-98004699D01*
X118576248Y-97992400D01*
X118659752Y-97992400D01*
X118784630Y-98004699D01*
X118784630Y-98004699D01*
G37*
G36*
X135928450Y-98746750D02*
X134728450Y-98746750D01*
X134728450Y-97846750D01*
X135928450Y-97846750D01*
X135928450Y-98746750D01*
X135928450Y-98746750D01*
G37*
G36*
X133728450Y-98746750D02*
X132528450Y-98746750D01*
X132528450Y-97846750D01*
X133728450Y-97846750D01*
X133728450Y-98746750D01*
X133728450Y-98746750D01*
G37*
G36*
X142843450Y-98746750D02*
X141643450Y-98746750D01*
X141643450Y-97846750D01*
X142843450Y-97846750D01*
X142843450Y-98746750D01*
X142843450Y-98746750D01*
G37*
G36*
X140643450Y-98746750D02*
X139443450Y-98746750D01*
X139443450Y-97846750D01*
X140643450Y-97846750D01*
X140643450Y-98746750D01*
X140643450Y-98746750D01*
G37*
G36*
X118784630Y-95464699D02*
X118944855Y-95513303D01*
X119092520Y-95592231D01*
X119221949Y-95698451D01*
X119328169Y-95827880D01*
X119407097Y-95975545D01*
X119455701Y-96135770D01*
X119472112Y-96302400D01*
X119455701Y-96469030D01*
X119407097Y-96629255D01*
X119328169Y-96776920D01*
X119221949Y-96906349D01*
X119092520Y-97012569D01*
X118944855Y-97091497D01*
X118784630Y-97140101D01*
X118659752Y-97152400D01*
X118576248Y-97152400D01*
X118451370Y-97140101D01*
X118291145Y-97091497D01*
X118143480Y-97012569D01*
X118014051Y-96906349D01*
X117907831Y-96776920D01*
X117828903Y-96629255D01*
X117780299Y-96469030D01*
X117763888Y-96302400D01*
X117780299Y-96135770D01*
X117828903Y-95975545D01*
X117907831Y-95827880D01*
X118014051Y-95698451D01*
X118143480Y-95592231D01*
X118291145Y-95513303D01*
X118451370Y-95464699D01*
X118576248Y-95452400D01*
X118659752Y-95452400D01*
X118784630Y-95464699D01*
X118784630Y-95464699D01*
G37*
G36*
X132250950Y-95834093D02*
X132640662Y-96059093D01*
X132040662Y-97098323D01*
X132040661Y-97098323D01*
X131483975Y-96776920D01*
X131261238Y-96648323D01*
X131861238Y-95609093D01*
X131861239Y-95609093D01*
X132250950Y-95834093D01*
X132250950Y-95834093D01*
G37*
G36*
X139155950Y-95825433D02*
X139545662Y-96050433D01*
X138945662Y-97089663D01*
X138945661Y-97089663D01*
X138555950Y-96864663D01*
X138166238Y-96639663D01*
X138766238Y-95600433D01*
X138766239Y-95600433D01*
X139155950Y-95825433D01*
X139155950Y-95825433D01*
G37*
G36*
X145979218Y-95698452D02*
X146438162Y-95963423D01*
X145838162Y-97002653D01*
X145838161Y-97002653D01*
X145224444Y-96648323D01*
X145058738Y-96552653D01*
X145658738Y-95513423D01*
X145658739Y-95513423D01*
X145979218Y-95698452D01*
X145979218Y-95698452D01*
G37*
G36*
X144045662Y-96548323D02*
X143655950Y-96773323D01*
X143266239Y-96998323D01*
X143266238Y-96998323D01*
X142666238Y-95959093D01*
X143117684Y-95698451D01*
X143445661Y-95509093D01*
X143445662Y-95509093D01*
X144045662Y-96548323D01*
X144045662Y-96548323D01*
G37*
G36*
X130245662Y-96539663D02*
X130057457Y-96648323D01*
X129466239Y-96989663D01*
X129466238Y-96989663D01*
X128866238Y-95950433D01*
X129255950Y-95725433D01*
X129645661Y-95500433D01*
X129645662Y-95500433D01*
X130245662Y-96539663D01*
X130245662Y-96539663D01*
G37*
G36*
X137140662Y-96539663D02*
X136952457Y-96648323D01*
X136361239Y-96989663D01*
X136361238Y-96989663D01*
X135761238Y-95950433D01*
X136150950Y-95725433D01*
X136540661Y-95500433D01*
X136540662Y-95500433D01*
X137140662Y-96539663D01*
X137140662Y-96539663D01*
G37*
G36*
X133350950Y-93928837D02*
X133740662Y-94153837D01*
X133140662Y-95193067D01*
X133140661Y-95193067D01*
X132750950Y-94968067D01*
X132361238Y-94743067D01*
X132961238Y-93703837D01*
X132961239Y-93703837D01*
X133350950Y-93928837D01*
X133350950Y-93928837D01*
G37*
G36*
X140255950Y-93920177D02*
X140645662Y-94145177D01*
X140045662Y-95184407D01*
X140045661Y-95184407D01*
X139655950Y-94959407D01*
X139266238Y-94734407D01*
X139866238Y-93695177D01*
X139866239Y-93695177D01*
X140255950Y-93920177D01*
X140255950Y-93920177D01*
G37*
G36*
X146924444Y-93703837D02*
X147538162Y-94058167D01*
X146938162Y-95097397D01*
X146938161Y-95097397D01*
X146324444Y-94743067D01*
X146158738Y-94647397D01*
X146758738Y-93608167D01*
X146758739Y-93608167D01*
X146924444Y-93703837D01*
X146924444Y-93703837D01*
G37*
G36*
X142945662Y-94643067D02*
X142555950Y-94868067D01*
X142166239Y-95093067D01*
X142166238Y-95093067D01*
X141566238Y-94053837D01*
X141955950Y-93828837D01*
X142345661Y-93603837D01*
X142345662Y-93603837D01*
X142945662Y-94643067D01*
X142945662Y-94643067D01*
G37*
G36*
X136040662Y-94634407D02*
X135852457Y-94743067D01*
X135261239Y-95084407D01*
X135261238Y-95084407D01*
X134661238Y-94045177D01*
X135252457Y-93703837D01*
X135440661Y-93595177D01*
X135440662Y-93595177D01*
X136040662Y-94634407D01*
X136040662Y-94634407D01*
G37*
G36*
X129145662Y-94634407D02*
X128957457Y-94743067D01*
X128366239Y-95084407D01*
X128366238Y-95084407D01*
X127766238Y-94045177D01*
X128357457Y-93703837D01*
X128545661Y-93595177D01*
X128545662Y-93595177D01*
X129145662Y-94634407D01*
X129145662Y-94634407D01*
G37*
G36*
X119468000Y-94612400D02*
X117768000Y-94612400D01*
X117768000Y-92912400D01*
X119468000Y-92912400D01*
X119468000Y-94612400D01*
X119468000Y-94612400D01*
G37*
G36*
X137093450Y-92746750D02*
X135893450Y-92746750D01*
X135893450Y-91846750D01*
X137093450Y-91846750D01*
X137093450Y-92746750D01*
X137093450Y-92746750D01*
G37*
G36*
X144038450Y-92746750D02*
X142838450Y-92746750D01*
X142838450Y-91846750D01*
X144038450Y-91846750D01*
X144038450Y-92746750D01*
X144038450Y-92746750D01*
G37*
G36*
X146238450Y-92746750D02*
X145038450Y-92746750D01*
X145038450Y-91846750D01*
X146238450Y-91846750D01*
X146238450Y-92746750D01*
X146238450Y-92746750D01*
G37*
G36*
X139293450Y-92746750D02*
X138093450Y-92746750D01*
X138093450Y-91846750D01*
X139293450Y-91846750D01*
X139293450Y-92746750D01*
X139293450Y-92746750D01*
G37*
G36*
X130193450Y-92746750D02*
X128993450Y-92746750D01*
X128993450Y-91846750D01*
X130193450Y-91846750D01*
X130193450Y-92746750D01*
X130193450Y-92746750D01*
G37*
G36*
X132393450Y-92746750D02*
X131193450Y-92746750D01*
X131193450Y-91846750D01*
X132393450Y-91846750D01*
X132393450Y-92746750D01*
X132393450Y-92746750D01*
G37*
G36*
X128748450Y-89838423D02*
X129138162Y-90063423D01*
X128538162Y-91102653D01*
X128538161Y-91102653D01*
X128148450Y-90877653D01*
X127758738Y-90652653D01*
X128358738Y-89613423D01*
X128358739Y-89613423D01*
X128748450Y-89838423D01*
X128748450Y-89838423D01*
G37*
G36*
X135653450Y-89838423D02*
X136043162Y-90063423D01*
X135443162Y-91102653D01*
X135443161Y-91102653D01*
X135053450Y-90877653D01*
X134663738Y-90652653D01*
X135263738Y-89613423D01*
X135263739Y-89613423D01*
X135653450Y-89838423D01*
X135653450Y-89838423D01*
G37*
G36*
X149455950Y-89834093D02*
X149845662Y-90059093D01*
X149245662Y-91098323D01*
X149245661Y-91098323D01*
X148855950Y-90873323D01*
X148466238Y-90648323D01*
X149066238Y-89609093D01*
X149066239Y-89609093D01*
X149455950Y-89834093D01*
X149455950Y-89834093D01*
G37*
G36*
X142553450Y-89829763D02*
X142943162Y-90054763D01*
X142343162Y-91093993D01*
X142343161Y-91093993D01*
X141953450Y-90868993D01*
X141563738Y-90643993D01*
X142163738Y-89604763D01*
X142163739Y-89604763D01*
X142553450Y-89829763D01*
X142553450Y-89829763D01*
G37*
G36*
X147449992Y-90550823D02*
X147060280Y-90775823D01*
X146670569Y-91000823D01*
X146670568Y-91000823D01*
X146070568Y-89961593D01*
X146460280Y-89736593D01*
X146849991Y-89511593D01*
X146849992Y-89511593D01*
X147449992Y-90550823D01*
X147449992Y-90550823D01*
G37*
G36*
X133645662Y-90548323D02*
X133255950Y-90773323D01*
X132866239Y-90998323D01*
X132866238Y-90998323D01*
X132266238Y-89959093D01*
X132655950Y-89734093D01*
X133045661Y-89509093D01*
X133045662Y-89509093D01*
X133645662Y-90548323D01*
X133645662Y-90548323D01*
G37*
G36*
X140550662Y-90548323D02*
X140160950Y-90773323D01*
X139771239Y-90998323D01*
X139771238Y-90998323D01*
X139171238Y-89959093D01*
X139560950Y-89734093D01*
X139950661Y-89509093D01*
X139950662Y-89509093D01*
X140550662Y-90548323D01*
X140550662Y-90548323D01*
G37*
G36*
X126743162Y-90543993D02*
X126554957Y-90652653D01*
X125963739Y-90993993D01*
X125963738Y-90993993D01*
X125363738Y-89954763D01*
X125954957Y-89613423D01*
X126143161Y-89504763D01*
X126143162Y-89504763D01*
X126743162Y-90543993D01*
X126743162Y-90543993D01*
G37*
G36*
X129848450Y-87933167D02*
X130238162Y-88158167D01*
X129638162Y-89197397D01*
X129638161Y-89197397D01*
X129248450Y-88972397D01*
X128858738Y-88747397D01*
X129458738Y-87708167D01*
X129458739Y-87708167D01*
X129848450Y-87933167D01*
X129848450Y-87933167D01*
G37*
G36*
X136753450Y-87933167D02*
X137143162Y-88158167D01*
X136543162Y-89197397D01*
X136543161Y-89197397D01*
X136153450Y-88972397D01*
X135763738Y-88747397D01*
X136363738Y-87708167D01*
X136363739Y-87708167D01*
X136753450Y-87933167D01*
X136753450Y-87933167D01*
G37*
G36*
X150555950Y-87928837D02*
X150945662Y-88153837D01*
X150345662Y-89193067D01*
X150345661Y-89193067D01*
X149955950Y-88968067D01*
X149566238Y-88743067D01*
X150166238Y-87703837D01*
X150166239Y-87703837D01*
X150555950Y-87928837D01*
X150555950Y-87928837D01*
G37*
G36*
X143653450Y-87924507D02*
X144043162Y-88149507D01*
X143443162Y-89188737D01*
X143443161Y-89188737D01*
X143053450Y-88963737D01*
X142663738Y-88738737D01*
X143263738Y-87699507D01*
X143263739Y-87699507D01*
X143653450Y-87924507D01*
X143653450Y-87924507D01*
G37*
G36*
X146349992Y-88645567D02*
X145960280Y-88870567D01*
X145570569Y-89095567D01*
X145570568Y-89095567D01*
X144970568Y-88056337D01*
X145360280Y-87831337D01*
X145749991Y-87606337D01*
X145749992Y-87606337D01*
X146349992Y-88645567D01*
X146349992Y-88645567D01*
G37*
G36*
X132545662Y-88643067D02*
X132155950Y-88868067D01*
X131766239Y-89093067D01*
X131766238Y-89093067D01*
X131166238Y-88053837D01*
X131555950Y-87828837D01*
X131945661Y-87603837D01*
X131945662Y-87603837D01*
X132545662Y-88643067D01*
X132545662Y-88643067D01*
G37*
G36*
X139450662Y-88643067D02*
X139060950Y-88868067D01*
X138671239Y-89093067D01*
X138671238Y-89093067D01*
X138071238Y-88053837D01*
X138460950Y-87828837D01*
X138850661Y-87603837D01*
X138850662Y-87603837D01*
X139450662Y-88643067D01*
X139450662Y-88643067D01*
G37*
G36*
X125643162Y-88638737D02*
X125454957Y-88747397D01*
X124863739Y-89088737D01*
X124863738Y-89088737D01*
X124263738Y-88049507D01*
X124854957Y-87708167D01*
X125043161Y-87599507D01*
X125043162Y-87599507D01*
X125643162Y-88638737D01*
X125643162Y-88638737D01*
G37*
G36*
X128938450Y-86746750D02*
X127738450Y-86746750D01*
X127738450Y-85846750D01*
X128938450Y-85846750D01*
X128938450Y-86746750D01*
X128938450Y-86746750D01*
G37*
G36*
X133608450Y-86746750D02*
X132408450Y-86746750D01*
X132408450Y-85846750D01*
X133608450Y-85846750D01*
X133608450Y-86746750D01*
X133608450Y-86746750D01*
G37*
G36*
X135808450Y-86746750D02*
X134608450Y-86746750D01*
X134608450Y-85846750D01*
X135808450Y-85846750D01*
X135808450Y-86746750D01*
X135808450Y-86746750D01*
G37*
G36*
X140528450Y-86746750D02*
X139328450Y-86746750D01*
X139328450Y-85846750D01*
X140528450Y-85846750D01*
X140528450Y-86746750D01*
X140528450Y-86746750D01*
G37*
G36*
X142728450Y-86746750D02*
X141528450Y-86746750D01*
X141528450Y-85846750D01*
X142728450Y-85846750D01*
X142728450Y-86746750D01*
X142728450Y-86746750D01*
G37*
G36*
X147398450Y-86746750D02*
X146198450Y-86746750D01*
X146198450Y-85846750D01*
X147398450Y-85846750D01*
X147398450Y-86746750D01*
X147398450Y-86746750D01*
G37*
G36*
X149598450Y-86746750D02*
X148398450Y-86746750D01*
X148398450Y-85846750D01*
X149598450Y-85846750D01*
X149598450Y-86746750D01*
X149598450Y-86746750D01*
G37*
G36*
X126738450Y-86746750D02*
X125538450Y-86746750D01*
X125538450Y-85846750D01*
X126738450Y-85846750D01*
X126738450Y-86746750D01*
X126738450Y-86746750D01*
G37*
G36*
X146050950Y-83834093D02*
X146440662Y-84059093D01*
X145840662Y-85098323D01*
X145840661Y-85098323D01*
X145450950Y-84873323D01*
X145061238Y-84648323D01*
X145661238Y-83609093D01*
X145661239Y-83609093D01*
X146050950Y-83834093D01*
X146050950Y-83834093D01*
G37*
G36*
X130195662Y-84548323D02*
X129805950Y-84773323D01*
X129416239Y-84998323D01*
X129416238Y-84998323D01*
X128816238Y-83959093D01*
X129205950Y-83734093D01*
X129595661Y-83509093D01*
X129595662Y-83509093D01*
X130195662Y-84548323D01*
X130195662Y-84548323D01*
G37*
G36*
X131954443Y-83609093D02*
X132545662Y-83950433D01*
X131945662Y-84989663D01*
X131945661Y-84989663D01*
X131354443Y-84648323D01*
X131166238Y-84539663D01*
X131766238Y-83500433D01*
X131766239Y-83500433D01*
X131954443Y-83609093D01*
X131954443Y-83609093D01*
G37*
G36*
X137140662Y-84539663D02*
X136952457Y-84648323D01*
X136361239Y-84989663D01*
X136361238Y-84989663D01*
X135761238Y-83950433D01*
X136352457Y-83609093D01*
X136540661Y-83500433D01*
X136540662Y-83500433D01*
X137140662Y-84539663D01*
X137140662Y-84539663D01*
G37*
G36*
X144040662Y-84539663D02*
X143852457Y-84648323D01*
X143261239Y-84989663D01*
X143261238Y-84989663D01*
X142661238Y-83950433D01*
X143252457Y-83609093D01*
X143440661Y-83500433D01*
X143440662Y-83500433D01*
X144040662Y-84539663D01*
X144040662Y-84539663D01*
G37*
G36*
X138859443Y-83609093D02*
X139443162Y-83946103D01*
X138843162Y-84985333D01*
X138843161Y-84985333D01*
X138259443Y-84648323D01*
X138063738Y-84535333D01*
X138663738Y-83496103D01*
X138663739Y-83496103D01*
X138859443Y-83609093D01*
X138859443Y-83609093D01*
G37*
G36*
X147150950Y-81928837D02*
X147540662Y-82153837D01*
X146940662Y-83193067D01*
X146940661Y-83193067D01*
X146550950Y-82968067D01*
X146161238Y-82743067D01*
X146761238Y-81703837D01*
X146761239Y-81703837D01*
X147150950Y-81928837D01*
X147150950Y-81928837D01*
G37*
G36*
X129095662Y-82643067D02*
X128705950Y-82868067D01*
X128316239Y-83093067D01*
X128316238Y-83093067D01*
X127716238Y-82053837D01*
X128105950Y-81828837D01*
X128495661Y-81603837D01*
X128495662Y-81603837D01*
X129095662Y-82643067D01*
X129095662Y-82643067D01*
G37*
G36*
X136040662Y-82634407D02*
X135852457Y-82743067D01*
X135261239Y-83084407D01*
X135261238Y-83084407D01*
X134661238Y-82045177D01*
X135252457Y-81703837D01*
X135440661Y-81595177D01*
X135440662Y-81595177D01*
X136040662Y-82634407D01*
X136040662Y-82634407D01*
G37*
G36*
X142940662Y-82634407D02*
X142752457Y-82743067D01*
X142161239Y-83084407D01*
X142161238Y-83084407D01*
X141561238Y-82045177D01*
X142152457Y-81703837D01*
X142340661Y-81595177D01*
X142340662Y-81595177D01*
X142940662Y-82634407D01*
X142940662Y-82634407D01*
G37*
G36*
X133054443Y-81703837D02*
X133645662Y-82045177D01*
X133045662Y-83084407D01*
X133045661Y-83084407D01*
X132454443Y-82743067D01*
X132266238Y-82634407D01*
X132866238Y-81595177D01*
X132866239Y-81595177D01*
X133054443Y-81703837D01*
X133054443Y-81703837D01*
G37*
G36*
X139959443Y-81703837D02*
X140543162Y-82040847D01*
X139943162Y-83080077D01*
X139943161Y-83080077D01*
X139359443Y-82743067D01*
X139163738Y-82630077D01*
X139763738Y-81590847D01*
X139763739Y-81590847D01*
X139959443Y-81703837D01*
X139959443Y-81703837D01*
G37*
G36*
X139338450Y-80746750D02*
X138138450Y-80746750D01*
X138138450Y-79846750D01*
X139338450Y-79846750D01*
X139338450Y-80746750D01*
X139338450Y-80746750D01*
G37*
G36*
X146198450Y-80746750D02*
X144998450Y-80746750D01*
X144998450Y-79846750D01*
X146198450Y-79846750D01*
X146198450Y-80746750D01*
X146198450Y-80746750D01*
G37*
G36*
X143998450Y-80746750D02*
X142798450Y-80746750D01*
X142798450Y-79846750D01*
X143998450Y-79846750D01*
X143998450Y-80746750D01*
X143998450Y-80746750D01*
G37*
G36*
X132388450Y-80746750D02*
X131188450Y-80746750D01*
X131188450Y-79846750D01*
X132388450Y-79846750D01*
X132388450Y-80746750D01*
X132388450Y-80746750D01*
G37*
G36*
X130188450Y-80746750D02*
X128988450Y-80746750D01*
X128988450Y-79846750D01*
X130188450Y-79846750D01*
X130188450Y-80746750D01*
X130188450Y-80746750D01*
G37*
G36*
X137138450Y-80746750D02*
X135938450Y-80746750D01*
X135938450Y-79846750D01*
X137138450Y-79846750D01*
X137138450Y-80746750D01*
X137138450Y-80746750D01*
G37*
G36*
X119084703Y-77455486D02*
X119375883Y-77576097D01*
X119637944Y-77751201D01*
X119860799Y-77974056D01*
X120035903Y-78236117D01*
X120156514Y-78527297D01*
X120218000Y-78836412D01*
X120218000Y-79151588D01*
X120156514Y-79460703D01*
X120035903Y-79751883D01*
X119860799Y-80013944D01*
X119637944Y-80236799D01*
X119375883Y-80411903D01*
X119084703Y-80532514D01*
X118775588Y-80594000D01*
X118460412Y-80594000D01*
X118151297Y-80532514D01*
X117860117Y-80411903D01*
X117598056Y-80236799D01*
X117375201Y-80013944D01*
X117200097Y-79751883D01*
X117079486Y-79460703D01*
X117018000Y-79151588D01*
X117018000Y-78836412D01*
X117079486Y-78527297D01*
X117200097Y-78236117D01*
X117375201Y-77974056D01*
X117598056Y-77751201D01*
X117860117Y-77576097D01*
X118151297Y-77455486D01*
X118460412Y-77394000D01*
X118775588Y-77394000D01*
X119084703Y-77455486D01*
X119084703Y-77455486D01*
G37*
G36*
X157184703Y-77455486D02*
X157475883Y-77576097D01*
X157737944Y-77751201D01*
X157960799Y-77974056D01*
X158135903Y-78236117D01*
X158256514Y-78527297D01*
X158318000Y-78836412D01*
X158318000Y-79151588D01*
X158256514Y-79460703D01*
X158135903Y-79751883D01*
X157960799Y-80013944D01*
X157737944Y-80236799D01*
X157475883Y-80411903D01*
X157184703Y-80532514D01*
X156875588Y-80594000D01*
X156560412Y-80594000D01*
X156251297Y-80532514D01*
X155960117Y-80411903D01*
X155698056Y-80236799D01*
X155475201Y-80013944D01*
X155300097Y-79751883D01*
X155179486Y-79460703D01*
X155118000Y-79151588D01*
X155118000Y-78836412D01*
X155179486Y-78527297D01*
X155300097Y-78236117D01*
X155475201Y-77974056D01*
X155698056Y-77751201D01*
X155960117Y-77576097D01*
X156251297Y-77455486D01*
X156560412Y-77394000D01*
X156875588Y-77394000D01*
X157184703Y-77455486D01*
X157184703Y-77455486D01*
G37*
M02*
