G04 #@! TF.GenerationSoftware,KiCad,Pcbnew,(5.0.2)-1*
G04 #@! TF.CreationDate,2019-03-12T22:47:49+00:00*
G04 #@! TF.ProjectId,crazy-proto - SOT23 - Hex,6372617a-792d-4707-926f-746f202d2053,1.0*
G04 #@! TF.SameCoordinates,Original*
G04 #@! TF.FileFunction,Legend,Bot*
G04 #@! TF.FilePolarity,Positive*
%FSLAX46Y46*%
G04 Gerber Fmt 4.6, Leading zero omitted, Abs format (unit mm)*
G04 Created by KiCad (PCBNEW (5.0.2)-1) date 12/03/2019 22:47:49*
%MOMM*%
%LPD*%
G01*
G04 APERTURE LIST*
%ADD10C,0.250000*%
%ADD11C,0.100000*%
%ADD12C,0.500000*%
%ADD13C,0.120000*%
G04 APERTURE END LIST*
D10*
X140638952Y-105194285D02*
X140734190Y-105289523D01*
X141019904Y-105384761D01*
X141210380Y-105384761D01*
X141496095Y-105289523D01*
X141686571Y-105099047D01*
X141781809Y-104908571D01*
X141877047Y-104527619D01*
X141877047Y-104241904D01*
X141781809Y-103860952D01*
X141686571Y-103670476D01*
X141496095Y-103480000D01*
X141210380Y-103384761D01*
X141019904Y-103384761D01*
X140734190Y-103480000D01*
X140638952Y-103575238D01*
X133538952Y-105394285D02*
X133634190Y-105489523D01*
X133919904Y-105584761D01*
X134110380Y-105584761D01*
X134396095Y-105489523D01*
X134586571Y-105299047D01*
X134681809Y-105108571D01*
X134777047Y-104727619D01*
X134777047Y-104441904D01*
X134681809Y-104060952D01*
X134586571Y-103870476D01*
X134396095Y-103680000D01*
X134110380Y-103584761D01*
X133919904Y-103584761D01*
X133634190Y-103680000D01*
X133538952Y-103775238D01*
X151515142Y-86237142D02*
X151229428Y-86332380D01*
X151134190Y-86427619D01*
X151038952Y-86618095D01*
X151038952Y-86903809D01*
X151134190Y-87094285D01*
X151229428Y-87189523D01*
X151419904Y-87284761D01*
X152181809Y-87284761D01*
X152181809Y-85284761D01*
X151515142Y-85284761D01*
X151324666Y-85380000D01*
X151229428Y-85475238D01*
X151134190Y-85665714D01*
X151134190Y-85856190D01*
X151229428Y-86046666D01*
X151324666Y-86141904D01*
X151515142Y-86237142D01*
X152181809Y-86237142D01*
X147915142Y-79987142D02*
X147629428Y-80082380D01*
X147534190Y-80177619D01*
X147438952Y-80368095D01*
X147438952Y-80653809D01*
X147534190Y-80844285D01*
X147629428Y-80939523D01*
X147819904Y-81034761D01*
X148581809Y-81034761D01*
X148581809Y-79034761D01*
X147915142Y-79034761D01*
X147724666Y-79130000D01*
X147629428Y-79225238D01*
X147534190Y-79415714D01*
X147534190Y-79606190D01*
X147629428Y-79796666D01*
X147724666Y-79891904D01*
X147915142Y-79987142D01*
X148581809Y-79987142D01*
X123922285Y-86613333D02*
X122969904Y-86613333D01*
X124112761Y-87184761D02*
X123446095Y-85184761D01*
X122779428Y-87184761D01*
X127422285Y-80313333D02*
X126469904Y-80313333D01*
X127612761Y-80884761D02*
X126946095Y-78884761D01*
X126279428Y-80884761D01*
D11*
X144503450Y-106296750D02*
X144503450Y-102296750D01*
X141067550Y-100296750D02*
X137603450Y-102296750D01*
X137631650Y-102296750D02*
X137631650Y-106296750D01*
X144567550Y-106296750D02*
X141103450Y-108296750D01*
X141103450Y-100296750D02*
X144567550Y-102296750D01*
X137603450Y-106296750D02*
X141067550Y-108296750D01*
X137667550Y-106296750D02*
X134203450Y-108296750D01*
X130703450Y-106296750D02*
X134167550Y-108296750D01*
X134203450Y-100296750D02*
X137667550Y-102296750D01*
X130731650Y-102296750D02*
X130731650Y-106296750D01*
X134167550Y-100296750D02*
X130703450Y-102296750D01*
X137603450Y-106296750D02*
X137603450Y-102296750D01*
X151417550Y-82296750D02*
X147953450Y-84296750D01*
X154853450Y-88296750D02*
X154853450Y-84296750D01*
X151453450Y-82296750D02*
X154917550Y-84296750D01*
X147981650Y-84296750D02*
X147981650Y-88296750D01*
X154917550Y-88296750D02*
X151453450Y-90296750D01*
X147953450Y-88296750D02*
X151417550Y-90296750D01*
X151467550Y-82296750D02*
X148003450Y-84296750D01*
X144503450Y-82296750D02*
X147967550Y-84296750D01*
X148003450Y-76296750D02*
X151467550Y-78296750D01*
X144531650Y-78296750D02*
X144531650Y-82296750D01*
X147967550Y-76296750D02*
X144503450Y-78296750D01*
X151403450Y-82296750D02*
X151403450Y-78296750D01*
X120303450Y-88246750D02*
X123767550Y-90246750D01*
X123767550Y-82246750D02*
X120303450Y-84246750D01*
X127203450Y-88246750D02*
X127203450Y-84246750D01*
X127267550Y-88246750D02*
X123803450Y-90246750D01*
X123803450Y-82246750D02*
X127267550Y-84246750D01*
X120331650Y-84246750D02*
X120331650Y-88246750D01*
X130717550Y-82246750D02*
X127253450Y-84246750D01*
X123753450Y-82246750D02*
X127217550Y-84246750D01*
X127253450Y-76246750D02*
X130717550Y-78246750D01*
X123781650Y-78246750D02*
X123781650Y-82246750D01*
X127217550Y-76246750D02*
X123753450Y-78246750D01*
X130653450Y-82246750D02*
X130653450Y-78246750D01*
D12*
X146142857Y-98342857D02*
X143857142Y-98342857D01*
X131492857Y-98539285D02*
X129207142Y-98539285D01*
X130350000Y-99682142D02*
X130350000Y-97396428D01*
X149200857Y-92389285D02*
X146915142Y-92389285D01*
X148058000Y-93532142D02*
X148058000Y-91246428D01*
X128142857Y-92214285D02*
X125857142Y-92214285D01*
X142217857Y-79939285D02*
X139932142Y-79939285D01*
X134729428Y-91425238D02*
X134634190Y-91330000D01*
X134443714Y-91234761D01*
X133967523Y-91234761D01*
X133777047Y-91330000D01*
X133681809Y-91425238D01*
X133586571Y-91615714D01*
X133586571Y-91806190D01*
X133681809Y-92091904D01*
X134824666Y-93234761D01*
X133586571Y-93234761D01*
X135292857Y-80094285D02*
X133007142Y-80094285D01*
X134150000Y-81237142D02*
X134150000Y-78951428D01*
X141724666Y-91434761D02*
X140486571Y-91434761D01*
X141153238Y-92196666D01*
X140867523Y-92196666D01*
X140677047Y-92291904D01*
X140581809Y-92387142D01*
X140486571Y-92577619D01*
X140486571Y-93053809D01*
X140581809Y-93244285D01*
X140677047Y-93339523D01*
X140867523Y-93434761D01*
X141438952Y-93434761D01*
X141629428Y-93339523D01*
X141724666Y-93244285D01*
D10*
X145505619Y-86237142D02*
X145219904Y-86332380D01*
X145124666Y-86427619D01*
X145029428Y-86618095D01*
X145029428Y-86903809D01*
X145124666Y-87094285D01*
X145219904Y-87189523D01*
X145410380Y-87284761D01*
X146172285Y-87284761D01*
X146172285Y-85284761D01*
X145505619Y-85284761D01*
X145315142Y-85380000D01*
X145219904Y-85475238D01*
X145124666Y-85665714D01*
X145124666Y-85856190D01*
X145219904Y-86046666D01*
X145315142Y-86141904D01*
X145505619Y-86237142D01*
X146172285Y-86237142D01*
X144362761Y-85284761D02*
X143124666Y-85284761D01*
X143791333Y-86046666D01*
X143505619Y-86046666D01*
X143315142Y-86141904D01*
X143219904Y-86237142D01*
X143124666Y-86427619D01*
X143124666Y-86903809D01*
X143219904Y-87094285D01*
X143315142Y-87189523D01*
X143505619Y-87284761D01*
X144077047Y-87284761D01*
X144267523Y-87189523D01*
X144362761Y-87094285D01*
X138091333Y-99094285D02*
X138186571Y-99189523D01*
X138472285Y-99284761D01*
X138662761Y-99284761D01*
X138948476Y-99189523D01*
X139138952Y-98999047D01*
X139234190Y-98808571D01*
X139329428Y-98427619D01*
X139329428Y-98141904D01*
X139234190Y-97760952D01*
X139138952Y-97570476D01*
X138948476Y-97380000D01*
X138662761Y-97284761D01*
X138472285Y-97284761D01*
X138186571Y-97380000D01*
X138091333Y-97475238D01*
X137424666Y-97284761D02*
X136186571Y-97284761D01*
X136853238Y-98046666D01*
X136567523Y-98046666D01*
X136377047Y-98141904D01*
X136281809Y-98237142D01*
X136186571Y-98427619D01*
X136186571Y-98903809D01*
X136281809Y-99094285D01*
X136377047Y-99189523D01*
X136567523Y-99284761D01*
X137138952Y-99284761D01*
X137329428Y-99189523D01*
X137424666Y-99094285D01*
D11*
X141003450Y-88296750D02*
X141003450Y-84296750D01*
X147931650Y-84296750D02*
X147931650Y-88296750D01*
X134167550Y-76296750D02*
X130703450Y-78296750D01*
X147931650Y-84296750D02*
X144467550Y-82296750D01*
X144531650Y-78296750D02*
X141067550Y-76296750D01*
X144531650Y-78296750D02*
X144531650Y-82296750D01*
X141067550Y-84296750D02*
X144531650Y-82296750D01*
X130667550Y-82296750D02*
X127203450Y-84296750D01*
X134131650Y-84296750D02*
X134131650Y-88296750D01*
X130703450Y-82296750D02*
X130703450Y-78296750D01*
X137631650Y-78296750D02*
X134167550Y-76296750D01*
X137567550Y-82296750D02*
X134103450Y-84296750D01*
X127203450Y-88296750D02*
X127203450Y-84296750D01*
X134131650Y-84296750D02*
X130667550Y-82296750D01*
X130667550Y-90296750D02*
X134131650Y-88296750D01*
D10*
X132024666Y-86713333D02*
X131072285Y-86713333D01*
X132215142Y-87284761D02*
X131548476Y-85284761D01*
X130881809Y-87284761D01*
X130405619Y-85284761D02*
X129167523Y-85284761D01*
X129834190Y-86046666D01*
X129548476Y-86046666D01*
X129358000Y-86141904D01*
X129262761Y-86237142D01*
X129167523Y-86427619D01*
X129167523Y-86903809D01*
X129262761Y-87094285D01*
X129358000Y-87189523D01*
X129548476Y-87284761D01*
X130119904Y-87284761D01*
X130310380Y-87189523D01*
X130405619Y-87094285D01*
D11*
X137631650Y-90296750D02*
X137631650Y-94296750D01*
X137603450Y-82296750D02*
X137603450Y-78296750D01*
X134167550Y-96296750D02*
X137631650Y-94296750D01*
X137603450Y-82296750D02*
X141067550Y-84296750D01*
X141067550Y-76296750D02*
X137603450Y-78296750D01*
X134203450Y-100296750D02*
X134203450Y-96296750D01*
X141131650Y-96296750D02*
X137667550Y-94296750D01*
X141131650Y-96296750D02*
X141131650Y-100296750D01*
X147967550Y-96296750D02*
X151431650Y-94296750D01*
X148031650Y-96296750D02*
X144567550Y-94296750D01*
X147967550Y-88296750D02*
X144503450Y-90296750D01*
X151431650Y-90296750D02*
X147967550Y-88296750D01*
X144567550Y-102296750D02*
X148031650Y-100296750D01*
X144503450Y-94296750D02*
X144503450Y-90296750D01*
X144567550Y-94296750D02*
X141103450Y-96296750D01*
X141103450Y-100296750D02*
X144567550Y-102296750D01*
X151431650Y-90296750D02*
X151431650Y-94296750D01*
X134203450Y-100296750D02*
X137667550Y-102296750D01*
X137667550Y-102296750D02*
X141131650Y-100296750D01*
X148031650Y-96296750D02*
X148031650Y-100296750D01*
X134103450Y-88296750D02*
X137567550Y-90296750D01*
X141067550Y-88296750D02*
X137603450Y-90296750D01*
X123803450Y-94296750D02*
X127267550Y-96296750D01*
X123803450Y-94296750D02*
X123803450Y-90296750D01*
X127267550Y-88296750D02*
X123803450Y-90296750D01*
X130731650Y-90296750D02*
X130731650Y-94296750D01*
X127267550Y-96296750D02*
X130731650Y-94296750D01*
X127303450Y-100296750D02*
X130767550Y-102296750D01*
X130767550Y-102296750D02*
X134231650Y-100296750D01*
X134231650Y-96296750D02*
X130767550Y-94296750D01*
X130731650Y-90296750D02*
X127267550Y-88296750D01*
X127303450Y-100296750D02*
X127303450Y-96296750D01*
X144531650Y-90296750D02*
X141067550Y-88296750D01*
D12*
X136986571Y-87234761D02*
X138129428Y-87234761D01*
X137558000Y-87234761D02*
X137558000Y-85234761D01*
X137748476Y-85520476D01*
X137938952Y-85710952D01*
X138129428Y-85806190D01*
D13*
G04 #@! TO.C,JP42*
X139642347Y-84061103D02*
X140142347Y-83195077D01*
X138964553Y-82515077D02*
X138464553Y-83381103D01*
G04 #@! TO.C,JP47*
X145038450Y-91616750D02*
X144038450Y-91616750D01*
X144038450Y-92976750D02*
X145038450Y-92976750D01*
G04 #@! TO.C,JP48*
X141528450Y-85616750D02*
X140528450Y-85616750D01*
X140528450Y-86976750D02*
X141528450Y-86976750D01*
G04 #@! TO.C,JP49*
X143142347Y-90169763D02*
X143642347Y-89303737D01*
X142464553Y-88623737D02*
X141964553Y-89489763D01*
G04 #@! TO.C,JP50*
X133608450Y-86976750D02*
X134608450Y-86976750D01*
X134608450Y-85616750D02*
X133608450Y-85616750D01*
G04 #@! TO.C,JP51*
X131567053Y-89208067D02*
X132067053Y-90074093D01*
X133244847Y-89394093D02*
X132744847Y-88528067D01*
G04 #@! TO.C,JP52*
X135062053Y-95199407D02*
X135562053Y-96065433D01*
X136739847Y-95385433D02*
X136239847Y-94519407D01*
G04 #@! TO.C,JP59*
X141643450Y-97616750D02*
X140643450Y-97616750D01*
X140643450Y-98976750D02*
X141643450Y-98976750D01*
G04 #@! TO.C,JP60*
X126738450Y-86976750D02*
X127738450Y-86976750D01*
X127738450Y-85616750D02*
X126738450Y-85616750D01*
G04 #@! TO.C,JP61*
X128117053Y-83208067D02*
X128617053Y-84074093D01*
X129794847Y-83394093D02*
X129294847Y-82528067D01*
G04 #@! TO.C,JP62*
X146639847Y-84174093D02*
X147139847Y-83308067D01*
X145962053Y-82628067D02*
X145462053Y-83494093D01*
G04 #@! TO.C,JP63*
X148398450Y-85616750D02*
X147398450Y-85616750D01*
X147398450Y-86976750D02*
X148398450Y-86976750D01*
G04 #@! TO.C,JP64*
X135564553Y-100515077D02*
X135064553Y-101381103D01*
X136242347Y-102061103D02*
X136742347Y-101195077D01*
G04 #@! TO.C,JP65*
X138557053Y-101249407D02*
X139057053Y-102115433D01*
X140234847Y-101435433D02*
X139734847Y-100569407D01*
G04 #@! TO.C,JP66*
X138138450Y-79616750D02*
X137138450Y-79616750D01*
X137138450Y-80976750D02*
X138138450Y-80976750D01*
G04 #@! TO.C,JP67*
X145959553Y-94532397D02*
X145459553Y-95398423D01*
X146637347Y-96078423D02*
X147137347Y-95212397D01*
G04 #@! TO.C,JP68*
X129844847Y-95385433D02*
X129344847Y-94519407D01*
X128167053Y-95199407D02*
X128667053Y-96065433D01*
G04 #@! TO.C,JP44*
X141967053Y-95208067D02*
X142467053Y-96074093D01*
X143644847Y-95394093D02*
X143144847Y-94528067D01*
G04 #@! TO.C,JP46*
X132839847Y-96174093D02*
X133339847Y-95308067D01*
X132162053Y-94628067D02*
X131662053Y-95494093D01*
G04 #@! TO.C,JP53*
X139744847Y-96165433D02*
X140244847Y-95299407D01*
X139067053Y-94619407D02*
X138567053Y-95485433D01*
G04 #@! TO.C,JP54*
X132067053Y-82519407D02*
X131567053Y-83385433D01*
X132744847Y-84065433D02*
X133244847Y-83199407D01*
G04 #@! TO.C,JP55*
X128659553Y-88632397D02*
X128159553Y-89498423D01*
X129337347Y-90178423D02*
X129837347Y-89312397D01*
G04 #@! TO.C,JP56*
X145371383Y-89210567D02*
X145871383Y-90076593D01*
X147049177Y-89396593D02*
X146549177Y-88530567D01*
G04 #@! TO.C,JP57*
X141962053Y-83199407D02*
X142462053Y-84065433D01*
X143639847Y-83385433D02*
X143139847Y-82519407D01*
G04 #@! TO.C,JP58*
X133728450Y-98976750D02*
X134728450Y-98976750D01*
X134728450Y-97616750D02*
X133728450Y-97616750D01*
G04 #@! TO.C,JP27*
X135062053Y-83199407D02*
X135562053Y-84065433D01*
X136739847Y-83385433D02*
X136239847Y-82519407D01*
G04 #@! TO.C,JP43*
X130193450Y-92976750D02*
X131193450Y-92976750D01*
X131193450Y-91616750D02*
X130193450Y-91616750D01*
G04 #@! TO.C,JP72*
X137093450Y-92976750D02*
X138093450Y-92976750D01*
X138093450Y-91616750D02*
X137093450Y-91616750D01*
G04 #@! TO.C,JP73*
X136242347Y-90178423D02*
X136742347Y-89312397D01*
X135564553Y-88632397D02*
X135064553Y-89498423D01*
G04 #@! TO.C,JP74*
X138472053Y-89208067D02*
X138972053Y-90074093D01*
X140149847Y-89394093D02*
X139649847Y-88528067D01*
G04 #@! TO.C,JP75*
X130188450Y-80976750D02*
X131188450Y-80976750D01*
X131188450Y-79616750D02*
X130188450Y-79616750D01*
G04 #@! TO.C,JP76*
X150044847Y-90174093D02*
X150544847Y-89308067D01*
X149367053Y-88628067D02*
X148867053Y-89494093D01*
G04 #@! TO.C,JP77*
X133344847Y-101385433D02*
X132844847Y-100519407D01*
X131667053Y-101199407D02*
X132167053Y-102065433D01*
G04 #@! TO.C,JP78*
X126342347Y-89389763D02*
X125842347Y-88523737D01*
X124664553Y-89203737D02*
X125164553Y-90069763D01*
G04 #@! TO.C,JP79*
X144998450Y-79616750D02*
X143998450Y-79616750D01*
X143998450Y-80976750D02*
X144998450Y-80976750D01*
G04 #@! TO.C,JP80*
X142472053Y-100569407D02*
X141972053Y-101435433D01*
X143149847Y-102115433D02*
X143649847Y-101249407D01*
G04 #@! TD*
M02*
