M48
;DRILL file {KiCad (5.0.2)-1} date 12/03/2019 22:47:54
;FORMAT={-:-/ absolute / metric / decimal}
FMAT,2
METRIC,TZ
T1C0.400
T2C1.000
%
G90
G05
T1
X120.1Y-109.1
X124.358Y-90.63
X124.358Y-93.93
X125.4Y-101.2
X126.675Y-83.95
X127.158Y-88.93
X127.258Y-95.63
X127.858Y-96.63
X127.858Y-99.93
X130.058Y-90.63
X130.1Y-93.925
X130.75Y-94.95
X130.758Y-101.2
X131.158Y-78.63
X131.258Y-81.93
X131.3Y-90.6
X131.3Y-93.925
X133.15Y-99.625
X133.25Y-96.675
X134.158Y-76.93
X134.158Y-83.63
X134.158Y-88.93
X134.2Y-95.5
X134.758Y-84.63
X134.758Y-88.03
X136.9Y-90.65
X136.9Y-93.9
X137.05Y-81.9
X137.058Y-78.53
X137.558Y-83.03
X137.65Y-89.55
X137.65Y-102.975
X138.158Y-78.63
X138.158Y-81.93
X138.4Y-90.65
X138.403Y-93.895
X138.8Y-108.9
X140.358Y-88.03
X140.458Y-84.53
X141.058Y-76.93
X141.058Y-83.63
X141.058Y-88.975
X141.165Y-95.474
X141.875Y-96.65
X141.875Y-99.891
X143.95Y-78.65
X143.958Y-90.75
X143.958Y-93.925
X144.558Y-95.03
X144.7Y-100.9
X145.058Y-90.73
X145.058Y-93.93
X145.6Y-76.5
X147.358Y-96.63
X147.358Y-99.93
X147.958Y-89.03
X147.958Y-95.53
X148.575Y-83.925
X150.658Y-93.93
X150.758Y-90.73
T2
X118.618Y-93.762
X118.618Y-96.302
X118.618Y-98.842
X118.618Y-101.382
X118.618Y-103.922
T0
M30
