%FSLAX45Y45*%
G04 Gerber Fmt 4.5, Leading zero omitted, Abs format (unit mm)*
G04 Created by KiCad (PCBNEW (5.0.2)-1) date 12/03/2019 22:47:55*
%MOMM*%
%LPD*%
G01*
G04 APERTURE LIST*
%ADD10C,0.100000*%
%ADD11C,0.200000*%
%ADD12C,0.300000*%
G04 APERTURE END LIST*
D10*
X16179800Y-11709400D02*
G75*
G02X15671800Y-12217400I-508000J0D01*
G01*
X11861800Y-12217400D02*
G75*
G02X11353800Y-11709400I0J508000D01*
G01*
X11353800Y-7899400D02*
G75*
G02X11861800Y-7391400I508000J0D01*
G01*
X15671800Y-7391400D02*
G75*
G02X16179800Y-7899400I0J-508000D01*
G01*
X11353800Y-11709400D02*
X11353800Y-7899400D01*
X15671800Y-12217400D02*
X11861800Y-12217400D01*
X16179800Y-7899400D02*
X16179800Y-11709400D01*
X11861800Y-7391400D02*
X15671800Y-7391400D01*
D11*
X15511800Y-11549400D02*
X15831800Y-11869400D01*
X15831800Y-11549400D02*
X15511800Y-11869400D01*
X15511800Y-7739400D02*
X15831800Y-8059400D01*
X15831800Y-7739400D02*
X15511800Y-8059400D01*
X11701800Y-7739400D02*
X12021800Y-8059400D01*
X12021800Y-7739400D02*
X11701800Y-8059400D01*
X11701800Y-11549400D02*
X12021800Y-11869400D01*
X12021800Y-11549400D02*
X11701800Y-11869400D01*
D12*
X11635228Y-12688114D02*
X11635228Y-12388114D01*
X11706657Y-12388114D01*
X11749514Y-12402400D01*
X11778086Y-12430971D01*
X11792371Y-12459543D01*
X11806657Y-12516686D01*
X11806657Y-12559543D01*
X11792371Y-12616686D01*
X11778086Y-12645257D01*
X11749514Y-12673829D01*
X11706657Y-12688114D01*
X11635228Y-12688114D01*
X11935228Y-12688114D02*
X11935228Y-12488114D01*
X11935228Y-12545257D02*
X11949514Y-12516686D01*
X11963800Y-12502400D01*
X11992371Y-12488114D01*
X12020943Y-12488114D01*
X12120943Y-12688114D02*
X12120943Y-12488114D01*
X12120943Y-12388114D02*
X12106657Y-12402400D01*
X12120943Y-12416686D01*
X12135228Y-12402400D01*
X12120943Y-12388114D01*
X12120943Y-12416686D01*
X12306657Y-12688114D02*
X12278086Y-12673829D01*
X12263800Y-12645257D01*
X12263800Y-12388114D01*
X12463800Y-12688114D02*
X12435228Y-12673829D01*
X12420943Y-12645257D01*
X12420943Y-12388114D01*
X12806657Y-12688114D02*
X12806657Y-12388114D01*
X12906657Y-12602400D01*
X13006657Y-12388114D01*
X13006657Y-12688114D01*
X13278086Y-12688114D02*
X13278086Y-12530971D01*
X13263800Y-12502400D01*
X13235228Y-12488114D01*
X13178086Y-12488114D01*
X13149514Y-12502400D01*
X13278086Y-12673829D02*
X13249514Y-12688114D01*
X13178086Y-12688114D01*
X13149514Y-12673829D01*
X13135228Y-12645257D01*
X13135228Y-12616686D01*
X13149514Y-12588114D01*
X13178086Y-12573829D01*
X13249514Y-12573829D01*
X13278086Y-12559543D01*
X13420943Y-12488114D02*
X13420943Y-12788114D01*
X13420943Y-12502400D02*
X13449514Y-12488114D01*
X13506657Y-12488114D01*
X13535228Y-12502400D01*
X13549514Y-12516686D01*
X13563800Y-12545257D01*
X13563800Y-12630971D01*
X13549514Y-12659543D01*
X13535228Y-12673829D01*
X13506657Y-12688114D01*
X13449514Y-12688114D01*
X13420943Y-12673829D01*
X13692371Y-12659543D02*
X13706657Y-12673829D01*
X13692371Y-12688114D01*
X13678086Y-12673829D01*
X13692371Y-12659543D01*
X13692371Y-12688114D01*
X13692371Y-12502400D02*
X13706657Y-12516686D01*
X13692371Y-12530971D01*
X13678086Y-12516686D01*
X13692371Y-12502400D01*
X13692371Y-12530971D01*
X11028800Y-13022400D02*
X11348800Y-13342400D01*
X11348800Y-13022400D02*
X11028800Y-13342400D01*
X11606657Y-13018114D02*
X11792371Y-13018114D01*
X11692371Y-13132400D01*
X11735228Y-13132400D01*
X11763800Y-13146686D01*
X11778086Y-13160971D01*
X11792371Y-13189543D01*
X11792371Y-13260971D01*
X11778086Y-13289543D01*
X11763800Y-13303829D01*
X11735228Y-13318114D01*
X11649514Y-13318114D01*
X11620943Y-13303829D01*
X11606657Y-13289543D01*
X11920943Y-13289543D02*
X11935228Y-13303829D01*
X11920943Y-13318114D01*
X11906657Y-13303829D01*
X11920943Y-13289543D01*
X11920943Y-13318114D01*
X12049514Y-13046686D02*
X12063800Y-13032400D01*
X12092371Y-13018114D01*
X12163800Y-13018114D01*
X12192371Y-13032400D01*
X12206657Y-13046686D01*
X12220943Y-13075257D01*
X12220943Y-13103829D01*
X12206657Y-13146686D01*
X12035228Y-13318114D01*
X12220943Y-13318114D01*
X12406657Y-13018114D02*
X12435228Y-13018114D01*
X12463800Y-13032400D01*
X12478086Y-13046686D01*
X12492371Y-13075257D01*
X12506657Y-13132400D01*
X12506657Y-13203829D01*
X12492371Y-13260971D01*
X12478086Y-13289543D01*
X12463800Y-13303829D01*
X12435228Y-13318114D01*
X12406657Y-13318114D01*
X12378086Y-13303829D01*
X12363800Y-13289543D01*
X12349514Y-13260971D01*
X12335228Y-13203829D01*
X12335228Y-13132400D01*
X12349514Y-13075257D01*
X12363800Y-13046686D01*
X12378086Y-13032400D01*
X12406657Y-13018114D01*
X12635228Y-13318114D02*
X12635228Y-13118114D01*
X12635228Y-13146686D02*
X12649514Y-13132400D01*
X12678086Y-13118114D01*
X12720943Y-13118114D01*
X12749514Y-13132400D01*
X12763800Y-13160971D01*
X12763800Y-13318114D01*
X12763800Y-13160971D02*
X12778086Y-13132400D01*
X12806657Y-13118114D01*
X12849514Y-13118114D01*
X12878086Y-13132400D01*
X12892371Y-13160971D01*
X12892371Y-13318114D01*
X13035228Y-13318114D02*
X13035228Y-13118114D01*
X13035228Y-13146686D02*
X13049514Y-13132400D01*
X13078086Y-13118114D01*
X13120943Y-13118114D01*
X13149514Y-13132400D01*
X13163800Y-13160971D01*
X13163800Y-13318114D01*
X13163800Y-13160971D02*
X13178086Y-13132400D01*
X13206657Y-13118114D01*
X13249514Y-13118114D01*
X13278086Y-13132400D01*
X13292371Y-13160971D01*
X13292371Y-13318114D01*
X13878086Y-13003829D02*
X13620943Y-13389543D01*
X14263800Y-13018114D02*
X14292371Y-13018114D01*
X14320943Y-13032400D01*
X14335228Y-13046686D01*
X14349514Y-13075257D01*
X14363800Y-13132400D01*
X14363800Y-13203829D01*
X14349514Y-13260971D01*
X14335228Y-13289543D01*
X14320943Y-13303829D01*
X14292371Y-13318114D01*
X14263800Y-13318114D01*
X14235228Y-13303829D01*
X14220943Y-13289543D01*
X14206657Y-13260971D01*
X14192371Y-13203829D01*
X14192371Y-13132400D01*
X14206657Y-13075257D01*
X14220943Y-13046686D01*
X14235228Y-13032400D01*
X14263800Y-13018114D01*
X14492371Y-13289543D02*
X14506657Y-13303829D01*
X14492371Y-13318114D01*
X14478086Y-13303829D01*
X14492371Y-13289543D01*
X14492371Y-13318114D01*
X14792371Y-13318114D02*
X14620943Y-13318114D01*
X14706657Y-13318114D02*
X14706657Y-13018114D01*
X14678086Y-13060971D01*
X14649514Y-13089543D01*
X14620943Y-13103829D01*
X14906657Y-13046686D02*
X14920943Y-13032400D01*
X14949514Y-13018114D01*
X15020943Y-13018114D01*
X15049514Y-13032400D01*
X15063800Y-13046686D01*
X15078086Y-13075257D01*
X15078086Y-13103829D01*
X15063800Y-13146686D01*
X14892371Y-13318114D01*
X15078086Y-13318114D01*
X15335228Y-13018114D02*
X15278086Y-13018114D01*
X15249514Y-13032400D01*
X15235228Y-13046686D01*
X15206657Y-13089543D01*
X15192371Y-13146686D01*
X15192371Y-13260971D01*
X15206657Y-13289543D01*
X15220943Y-13303829D01*
X15249514Y-13318114D01*
X15306657Y-13318114D01*
X15335228Y-13303829D01*
X15349514Y-13289543D01*
X15363800Y-13260971D01*
X15363800Y-13189543D01*
X15349514Y-13160971D01*
X15335228Y-13146686D01*
X15306657Y-13132400D01*
X15249514Y-13132400D01*
X15220943Y-13146686D01*
X15206657Y-13160971D01*
X15192371Y-13189543D01*
X15478086Y-13018114D02*
X15478086Y-13075257D01*
X15592371Y-13018114D02*
X15592371Y-13075257D01*
X16035228Y-13432400D02*
X16020943Y-13418114D01*
X15992371Y-13375257D01*
X15978086Y-13346686D01*
X15963800Y-13303829D01*
X15949514Y-13232400D01*
X15949514Y-13175257D01*
X15963800Y-13103829D01*
X15978086Y-13060971D01*
X15992371Y-13032400D01*
X16020943Y-12989543D01*
X16035228Y-12975257D01*
X16278086Y-13118114D02*
X16278086Y-13318114D01*
X16206657Y-13003829D02*
X16135228Y-13218114D01*
X16320943Y-13218114D01*
X16663800Y-13318114D02*
X16663800Y-13018114D01*
X16792371Y-13318114D02*
X16792371Y-13160971D01*
X16778086Y-13132400D01*
X16749514Y-13118114D01*
X16706657Y-13118114D01*
X16678086Y-13132400D01*
X16663800Y-13146686D01*
X16978086Y-13318114D02*
X16949514Y-13303829D01*
X16935228Y-13289543D01*
X16920943Y-13260971D01*
X16920943Y-13175257D01*
X16935228Y-13146686D01*
X16949514Y-13132400D01*
X16978086Y-13118114D01*
X17020943Y-13118114D01*
X17049514Y-13132400D01*
X17063800Y-13146686D01*
X17078086Y-13175257D01*
X17078086Y-13260971D01*
X17063800Y-13289543D01*
X17049514Y-13303829D01*
X17020943Y-13318114D01*
X16978086Y-13318114D01*
X17249514Y-13318114D02*
X17220943Y-13303829D01*
X17206657Y-13275257D01*
X17206657Y-13018114D01*
X17478086Y-13303829D02*
X17449514Y-13318114D01*
X17392371Y-13318114D01*
X17363800Y-13303829D01*
X17349514Y-13275257D01*
X17349514Y-13160971D01*
X17363800Y-13132400D01*
X17392371Y-13118114D01*
X17449514Y-13118114D01*
X17478086Y-13132400D01*
X17492371Y-13160971D01*
X17492371Y-13189543D01*
X17349514Y-13218114D01*
X17606657Y-13303829D02*
X17635228Y-13318114D01*
X17692371Y-13318114D01*
X17720943Y-13303829D01*
X17735228Y-13275257D01*
X17735228Y-13260971D01*
X17720943Y-13232400D01*
X17692371Y-13218114D01*
X17649514Y-13218114D01*
X17620943Y-13203829D01*
X17606657Y-13175257D01*
X17606657Y-13160971D01*
X17620943Y-13132400D01*
X17649514Y-13118114D01*
X17692371Y-13118114D01*
X17720943Y-13132400D01*
X17835228Y-13432400D02*
X17849514Y-13418114D01*
X17878086Y-13375257D01*
X17892371Y-13346686D01*
X17906657Y-13303829D01*
X17920943Y-13232400D01*
X17920943Y-13175257D01*
X17906657Y-13103829D01*
X17892371Y-13060971D01*
X17878086Y-13032400D01*
X17849514Y-12989543D01*
X17835228Y-12975257D01*
X18378086Y-13432400D02*
X18363800Y-13418114D01*
X18335228Y-13375257D01*
X18320943Y-13346686D01*
X18306657Y-13303829D01*
X18292371Y-13232400D01*
X18292371Y-13175257D01*
X18306657Y-13103829D01*
X18320943Y-13060971D01*
X18335228Y-13032400D01*
X18363800Y-12989543D01*
X18378086Y-12975257D01*
X18492371Y-13118114D02*
X18492371Y-13318114D01*
X18492371Y-13146686D02*
X18506657Y-13132400D01*
X18535228Y-13118114D01*
X18578086Y-13118114D01*
X18606657Y-13132400D01*
X18620943Y-13160971D01*
X18620943Y-13318114D01*
X18806657Y-13318114D02*
X18778086Y-13303829D01*
X18763800Y-13289543D01*
X18749514Y-13260971D01*
X18749514Y-13175257D01*
X18763800Y-13146686D01*
X18778086Y-13132400D01*
X18806657Y-13118114D01*
X18849514Y-13118114D01*
X18878086Y-13132400D01*
X18892371Y-13146686D01*
X18906657Y-13175257D01*
X18906657Y-13260971D01*
X18892371Y-13289543D01*
X18878086Y-13303829D01*
X18849514Y-13318114D01*
X18806657Y-13318114D01*
X18992371Y-13118114D02*
X19106657Y-13118114D01*
X19035228Y-13018114D02*
X19035228Y-13275257D01*
X19049514Y-13303829D01*
X19078086Y-13318114D01*
X19106657Y-13318114D01*
X19435228Y-13118114D02*
X19435228Y-13418114D01*
X19435228Y-13132400D02*
X19463800Y-13118114D01*
X19520943Y-13118114D01*
X19549514Y-13132400D01*
X19563800Y-13146686D01*
X19578086Y-13175257D01*
X19578086Y-13260971D01*
X19563800Y-13289543D01*
X19549514Y-13303829D01*
X19520943Y-13318114D01*
X19463800Y-13318114D01*
X19435228Y-13303829D01*
X19749514Y-13318114D02*
X19720943Y-13303829D01*
X19706657Y-13275257D01*
X19706657Y-13018114D01*
X19992371Y-13318114D02*
X19992371Y-13160971D01*
X19978086Y-13132400D01*
X19949514Y-13118114D01*
X19892371Y-13118114D01*
X19863800Y-13132400D01*
X19992371Y-13303829D02*
X19963800Y-13318114D01*
X19892371Y-13318114D01*
X19863800Y-13303829D01*
X19849514Y-13275257D01*
X19849514Y-13246686D01*
X19863800Y-13218114D01*
X19892371Y-13203829D01*
X19963800Y-13203829D01*
X19992371Y-13189543D01*
X20092371Y-13118114D02*
X20206657Y-13118114D01*
X20135228Y-13018114D02*
X20135228Y-13275257D01*
X20149514Y-13303829D01*
X20178086Y-13318114D01*
X20206657Y-13318114D01*
X20420943Y-13303829D02*
X20392371Y-13318114D01*
X20335228Y-13318114D01*
X20306657Y-13303829D01*
X20292371Y-13275257D01*
X20292371Y-13160971D01*
X20306657Y-13132400D01*
X20335228Y-13118114D01*
X20392371Y-13118114D01*
X20420943Y-13132400D01*
X20435228Y-13160971D01*
X20435228Y-13189543D01*
X20292371Y-13218114D01*
X20692371Y-13318114D02*
X20692371Y-13018114D01*
X20692371Y-13303829D02*
X20663800Y-13318114D01*
X20606657Y-13318114D01*
X20578086Y-13303829D01*
X20563800Y-13289543D01*
X20549514Y-13260971D01*
X20549514Y-13175257D01*
X20563800Y-13146686D01*
X20578086Y-13132400D01*
X20606657Y-13118114D01*
X20663800Y-13118114D01*
X20692371Y-13132400D01*
X20806657Y-13432400D02*
X20820943Y-13418114D01*
X20849514Y-13375257D01*
X20863800Y-13346686D01*
X20878086Y-13303829D01*
X20892371Y-13232400D01*
X20892371Y-13175257D01*
X20878086Y-13103829D01*
X20863800Y-13060971D01*
X20849514Y-13032400D01*
X20820943Y-12989543D01*
X20806657Y-12975257D01*
M02*
